<svg width="534" height="226" fill="none" xmlns="http://www.w3.org/2000/svg"><path d="M108.783 225.811c1.966.299 4.068.27 5.988-.277 2.018-.57 3.825-1.693 5.472-2.926l-11.239-6.304-4.266 2.393c-.053 1.576.403 2.911.767 3.721.06.124-.121.233-.213.124-.652-.773-1.358-1.809-1.737-3.181l-4.971 2.787c1.487.285 3.18.905 5.517 2.131a14.826 14.826 0 004.682 1.524v.008z" fill="#008BFF"/><path d="M200.28 216.252c-5.079.353-15.835-11.894-16.8-16.054 4.495-2.271 5.61-6.588 5.603-10.306 0-.922-.075-1.813-.217-2.66l-16.613-9.714c-5.274 1.926-8.692 7.503-8.692 13.963 0 6.491 6.455 22.913 25.978 27.889 17.414 4.437 29.083-2.331 36.757-10.26l-9.791-5.727c-6.456 7.968-12.731 12.622-16.232 12.862l.007.007z" fill="#14C7FF"/><path d="M259.699 59.613c-1.271 4.189-2.81 9.858-4.275 15.415l13.227 7.764c.513-2.61 1.085-5.408 1.71-8.362V29.089c-6.045 12.394-9.153 25.58-10.662 30.532v-.008z" fill="#00ABFF"/><path d="M514.899 62.654s1.077-2.716-.176-4.865c-1.184-2.042-4.157-2.594-4.157-2.594s-1.154 2.58.176 4.864c1.306 2.247 4.157 2.595 4.157 2.595zm-16.002-17.61s-1.682-3.33-4.698-3.933c-2.86-.573-5.758 1.843-5.758 1.843s1.497 3.297 4.698 3.932c3.15.635 5.758-1.842 5.758-1.842zm-25.393-9.701s-.306-5.216-3.752-7.774c-3.27-2.427-8.197-1.102-8.197-1.102s.087 5.054 3.752 7.774c3.606 2.674 8.197 1.102 8.197 1.102zm55.269 40.267s-.519-1.72-2.024-2.314c-1.433-.566-3.204.247-3.204.247s.425 1.68 2.023 2.313c1.577.62 3.205-.247 3.205-.247zM438.883.163c-2.096-.256-9.722-.784-17.377 3.707-6.044 3.549-9.08 7.874-10.736 10.926l21.734 12.801c.291-1.077.463-2.238.448-3.466-.045-6.954-5.193-11.724-8.2-12.84-2.515-.933-5.089-1.13-7.461-.557-.18.046-.276-.21-.112-.293 1.85-.95 5.469-2.397 8.871-1.447 4.455 1.25 7.357 3.586 9.088 8.808.104.324.574.271.604-.068.135-1.484.239-3.88-.089-6.344-.478-3.602.783-7.55 3.425-10.73a.315.315 0 00-.202-.512l.007.015z" fill="#008BFF"/><path d="M112.029 100.693l-16.302 9.521c-1.973 6.319-4.242 13.575-6.104 19.523l11.57 6.758c.935-3.074 6.66-21.996 10.836-35.802zm-33.517 22.376l3.642-5.221-5.974 3.754 2.332 1.467z" fill="#00ABFF"/><path d="M130.463 53.047c-7.021-.985-12.804 6.247-18.766 13.689L76.18 117.151v4.425l6.327-3.694 17.587-23.368c.269-.351.828-.075.702.35 0 0-2.112 6.74-4.723 15.099l16.4-9.568 4.507-14.86c1.179-4.351 6.529-23.562 15.289-25.495 6.469-1.433 11.842 5.135 12.513 4.694 1.067-.694-5.939-10.516-14.304-11.688h-.015zm98.379 130.605c-.128.276-.256.552-.384.813-3.587 7.356-7.763 13.674-11.87 18.68l9.865 5.7c4.597-4.693 7.77-9.788 9.903-13.205 2.804-4.491 6.723-11.988 10.853-22.597l-18.367 10.609zM397.297 101.6c.313-4.765-1.876-9.857-7.966-9.857-4.497 0-9.507 3.529-14.272 7.37-3.388 2.822-7.989 7.699-13.453 14.847.149-.521 1.392-4.84 2.74-9.538l-14.064 8.205c-1.318 4.341-2.918 9.835-4.489 15.308l10.244 5.971c1.035-3.328 2.174-6.79 3.35-8.801 4.259-6.961 7.817-11.056 11.145-14.883 5.666-6.522 11.577-9.642 13.319-9.523 2.256.157 1.862 4.215-.126 9.538 0 0-9.567 25.806-10.833 33.504l10.587 6.18c5.398-2.569 9.299-7.877 11.487-11.965.447-.841 1.445-3.067.752-3.469-.625-.365-4.571 4.459-7.735 5.509-1.169.387-2.36-.506-1.965-1.675 1.853-5.45 10.936-31.628 11.271-36.721h.008z" fill="#008BFF"/><path d="M324.927 90.51c-7.93-5.27-19.924-1.91-29.919 7.375l3.976 2.318c3.983-4.391 8.699-6.472 12.994-5.102 5.626 1.8 8.988 9.026 9.121 17.999l9.41 5.494c3.68-11.95 1.859-23.137-5.59-28.09l.008.007zm-7.361 41.883c-4.538 9.266-11.876 14.68-18.274 12.665a9.259 9.259 0 01-2.107-.963l-10.394 5.97c10.477 6.088 27.283-1.526 37.978-17.369a54.916 54.916 0 003.846-6.643l-11.049 6.34z" fill="#00ABFF"/><path d="M409.64 18.223c-1.038 1.93-4.071 11.905-.408 21.02.178.442.356.868.527 1.28.141.336-.297.597-.527.32a202.61 202.61 0 00-.875-1.061c-2.343-2.804-5.234-4.838-8.037-6.282v29.314a11.44 11.44 0 003.492 1.982c2.632.935 5.124.546 6.525.164.171-.044.274.195.119.285-1.861 1.121-4.686 2.28-8.668 1.248a8.216 8.216 0 01-1.476-.53v8.801c2.863 2.804 6.043 3.956 7.118 4.285a.314.314 0 00.401-.284c.237-3.762.682-6.386 4.642-11.703 4.1-5.497 3.952-11.875 3.344-14.455-.097-.42-.193-.845-.319-1.294a.313.313 0 01.512-.314c.333.314.66.606.986.882 1.98 1.743 7.504 4.853 14.236 3.762 6.51-1.055 9.024-.225 12.435 1.323a.309.309 0 00.43-.224c.267-1.413.957-6.483-1.735-11.569-2.662-5.025-5.932-6.85-8.001-7.732-.281-.12-.548.21-.37.464.971 1.428 2.573 4.442 1.742 7.941-.956 4.024-3.292 6.005-5.146 7.142-.156.097-.319-.105-.193-.24.994-1.069 2.499-3.11 2.907-5.892.601-4.113-.986-8.831-5.19-10.798a.309.309 0 01-.082-.509c.979-.927 3.752-3.843 4.842-7.926l-21.6-12.706c-.808 1.481-1.282 2.655-1.623 3.29l-.008.016z" fill="#14C7FF"/><path d="M400.312 33.121c-4.751-2.44-9.286-3.21-10.661-3.194-2.189.023-9.437-1.168-18.268 4.4-7.524 4.738-10.617 11.79-11.379 13.786a.307.307 0 00.351.415c4.02-.874 8.07-.158 11.006 1.951 2.01 1.446 4.154 2.464 5.521 3.036.314.128.575-.264.344-.512-3.773-3.986-4.468-7.662-3.475-12.22.755-3.48 3.714-6.034 5.41-7.247.149-.106.329.09.202.233-1.614 1.854-2.638 4.242-2.997 6.924-.425 3.202 1.345 10.027 7.427 13.312 5.155 2.787 10.901 1.152 12.522.595.209-.075.418.09.411.316-.164 3.195 1.36 5.892 3.579 7.737V33.121h.007z" fill="#00ABFF"/><path d="M399.559 65.213c-2.489-1.172-3.93-3.357-4.593-4.632-.138-.272-.546-.191-.568.117-.189 2.214-.116 5.908 2.992 10.534.67.997 1.412 1.862 2.176 2.61v-8.629h-.007zM177.76 176.911c-2.167-.315-4.187-.082-5.985.578l16.431 9.725c-.902-5.575-4.661-9.455-10.446-10.303zm-42.002 15.646c-1.118 2.222-2.887 3.965-4.92 4.881.308 1.196.54 2.444.682 3.706.195 1.714.218 3.441.023 5.096a26.938 26.938 0 01-1.455 6.128c-1.432 3.914-4.049 7.577-7.604 10.648a19.76 19.76 0 003.532-1.129 23.576 23.576 0 004.68-2.673c.817-.599 1.687-1.256 2.324-2.053.975-1.241 4.92-4.77 5.767-12.169.728-6.299-1.852-11.143-2.639-12.45-.09-.148-.315-.14-.398.015h.008zm31.529-93.356c-1.212-3.65-3.319-6.653-6.321-8.647-3.507-2.326-7.79-3.003-12.343-2.243l18.671 10.89h-.007z" fill="#00ABFF"/><path d="M310.692 32.949c-.023 5.055 3.529 9.557 8.459 10.74a11.114 11.114 0 009.465-2.017l-17.803-10.345c-.076.53-.121 1.068-.121 1.622z" fill="#31E5FF"/><path d="M365.95 101.361l-11.335-6.635c-3.698 2.264-6.426 4.806-9.228 8.045-5.88 6.792-10.125 16.276-9.168 17.296.381.404 3.774-5.646 10.992-11.846 1.449-1.245 6.829-4.693 6.523-4.011-.478 1.08-1.472 4.183-2.72 8.314l14.115-8.262c.276-.959.553-1.934.829-2.893l-.008-.008z" fill="#14C7FF"/><path d="M367.552 90.439c-.423-.168-1.088-.222-2.092-.168-2.123.122-6.459 1.62-9.405 3.218-.718.39-1.398.78-2.047 1.185l11.459 6.765c.786-2.783 1.549-5.45 2.085-7.346.159-.566.302-1.063.415-1.468.31-1.1.424-1.857-.415-2.186z" fill="#00ABFF"/><path d="M497.404 151.412a19.255 19.255 0 003.368-.842c3.222-1.114 5.736-2.476 7.835-3.95l-11.203-6.396v11.188zm16.31-.087a7.75 7.75 0 002.361.833l-4.481-2.983c.563.967 1.323 1.717 2.12 2.15z" fill="#14C7FF"/><path d="M485.605 133.511c-1.855 4.201-2.514 9.051.023 13.426l11.776-6.705-11.799-6.721zm-20.994 14.88c4.674-2.341 7.572-4.871 11.448-9.826.738-.942 3.553-5.023 2.401-5.053-.715-.023-5.893 5.585-13.917 7.941v6.976s.045-.023.068-.03v-.008z" fill="#14C7FF"/><path d="M497.405 140.232L485.455 147c.091.155.183.303.274.45 2.186 3.436 6.976 4.476 11.676 3.738v-10.964.008z" fill="#00ABFF"/><path d="M280.07 13.662l8.558 4.985c4.688-6.255 10.894-11.039 13.379-10.89.142.007.298.037.469.096V2.988c-9.227-.164-16.572 4.234-22.406 10.682v-.008z" fill="#008BFF"/><path d="M270.361 46.288l6.259 3.686a289.673 289.673 0 012.704-8.95l-8.955 5.271-.008-.007z" fill="#3AF"/><path d="M33.557 90.112c.305-2.5-.755-5.315-2.787-6.916-2.38-1.88-6.13-2.187-6.123-1.675 0 .578 5.92 1.974 5.043 7.458a7.88 7.88 0 01-1.996 4.146l3.998 2.347c.907-1.448 1.604-3.203 1.872-5.36h-.007zm-2.182-18.195c1.852-.12 3.631.096 5.262.722 4.636 1.77 6.805 6.095 5.986 9.072l-5.152 17.415 5.196 3.059c.23-.744.443-1.459.65-2.144v-35.15l-11.95 7.026h.008z" fill="#31E5FF"/><path d="M59.048 88.109c-1.272-8.892-4.019-15.177-7.714-19.269-1.926-2.14-4.116-3.685-6.495-4.695l-.774.452v35.591c.805-2.622 1.474-4.792 1.903-6.202.128-.414.723-.354.776.076l.827 6.631 12.177-7.114a309.07 309.07 0 00-.715-5.47h.015zm46.85 125.957a9.871 9.871 0 00-1.188 3.104c-.096.473-.143.93-.151 1.371l4.481-2.63-3.15-1.845h.008zm-2.902 2.011c.103-.98.412-1.84.817-2.581l-2.809-1.668a14.899 14.899 0 00-2.662 2.005c-3.273 3.022-4.074 6.934-4.236 8.041a.24.24 0 00.258.277c1.426-.12 2.647-.165 4.051.12l4.817-2.858c-.25-.95-.36-2.049-.228-3.343l-.008.007z" fill="#14C7FF"/><path d="M129.111 202.155c-.26-1.691-.164-7.426-5.392-13.639-4.455-5.285-10.182-6.902-11.783-7.262-.187-.045-.343.143-.276.322 1.11 3.017 1.02 6.221-.261 8.729-.879 1.714-1.415 3.489-1.706 4.604-.067.254.261.419.425.21 2.615-3.362 5.348-4.305 8.938-4.05 2.741.194 5.02 2.2 6.13 3.376.097.105-.037.262-.156.187-1.594-1.041-3.531-1.565-5.616-1.55-2.488.023-7.501 2.156-9.326 7.224-1.549 4.297.336 8.557.946 9.747a.242.242 0 01-.194.352c-2.472.225-4.371 1.729-5.533 3.676l2.941 1.722 11.031 6.468c.276-.217.552-.435.82-.659 3.351-2.762 6.144-6.311 7.627-10.436a25.453 25.453 0 001.318-5.667c.127-1.093.246-2.268.082-3.361l-.015.007z" fill="#00ABFF"/><path d="M105.814 210.337c-1.196.069-2.947.31-4.99 1.447l2.719 1.536c.719-1.247 1.744-2.108 2.413-2.576.185-.131.085-.421-.149-.407h.007z" fill="#00ABFF"/><path d="M279.245 41.105c2.419-7.46 4.815-13.691 6.736-17.215a38.234 38.234 0 013.052-4.698l-8.665-5.02c-4.002 4.391-7.294 9.733-10.007 15.224v16.848l8.884-5.147v.008zm34.723-20.966l10.912-6.51c-4.122-5.346-10.714-9.924-21.156-10.593-.419-.03-.838-.045-1.249-.053v4.924c2.777.887 8.958 7.698 11.493 12.232z" fill="#14C7FF"/><path d="M332.344 31.27c-.126-2.843-1.429-10.556-6.647-17.098l-11.053 6.38c1.02 1.76 1.459 3.168.871 3.727-2.524 1.628-4.347 4.273-4.824 7.434l17.418 10.056a10.687 10.687 0 004.101-7.131c.097-.774.171-2.306.127-3.375l.007.008z" fill="#00ABFF"/><path d="M270.361 46.252v28.335c.319-1.532.646-3.1.994-4.715 1.414-6.611 3.154-13.543 4.981-20.05l-5.975-3.578v.008zm-98.569 74.488c.139.603 2.481-1.937 3.39-3.052 2.365-2.91 5.593-6.038 8.543-8.518l-4.407-2.51c-4.622 6.151-7.803 12.897-7.526 14.088v-.008zm-23.579-25.147c7.927 2.523 11.412 15.677 7.777 29.382-2.721 10.288-8.682 17.963-14.836 20.085v4.861c6.895-3.104 13.842-9.045 19.226-17.115 7.717-11.56 10.147-24.379 7.186-33.275l-18.552-10.772c-2.565.424-5.213 1.303-7.86 2.598v4.787c2.356-1.035 4.764-1.273 7.052-.551h.007zm34.766 39.41l14.529-8.468c.09-.195.173-.39.263-.578 1.135-2.417 2.458-4.767 3.879-7.019l-12.11-7.057c-1.127 3.979-4.006 14.091-6.561 23.115v.007z" fill="#14C7FF"/><path d="M182.972 135.119c-2.071 7.354-3.944 13.961-4.458 15.792a.384.384 0 00.375.495c2.196 0 9.357.015 10.723 0a.386.386 0 00.375-.318c.117-.605 3.855-16.751 7.182-24.289l-14.197 8.328v-.008z" fill="#00ABFF"/><path d="M272.332 120.702a.429.429 0 00.122-.722 23.223 23.223 0 01-2.093-2.132v3.73c.818-.39 1.497-.681 1.971-.876zm47.047 3.858a42.143 42.143 0 01-2.713 7.46l10.766-6.317a49.02 49.02 0 002.677-6.855l-9.321-5.475c.051 3.535-.396 7.342-1.409 11.187zm-27.809-9.282c1.67-6.248 4.54-11.545 7.918-15.224l-4.077-2.344c-2.991 2.742-5.807 5.993-8.297 9.694-11.015 16.362-11.425 35.212-.919 42.105.221.142.44.277.661.412l10.484-6.039c-6.522-4.023-9.118-16.085-5.778-28.596l.008-.008z" fill="#14C7FF"/><path d="M270.361 117.983c-2.796-3.217-6.53-8.927-5.504-14.42.328-1.754 1.428-8.591 3.355-18.533l-18.788 10.994c-3.102 4.859-10.852 8.225-13.157 9.084a.397.397 0 00-.142.656c1.957 1.896 8.635 9.614 7.847 16.615-.089.769-1.569 8.919-3.786 19.294l14.08 8.248a316.898 316.898 0 004.463-18.264c.952-4.464 7.854-8.42 11.632-10.233v-3.441z" fill="#008BFF"/><path d="M141.154 95.794v-4.797c-6.626 3.216-13.237 8.991-18.408 16.707-9.378 13.976-11.014 29.765-4.719 38.309a14.843 14.843 0 003.806 3.626c1.975 1.298 4.207 2.082 6.589 2.38 3.95.493 8.33-.335 12.732-2.305v-4.873c-2.065.709-4.146.799-6.143.172-7.991-2.53-11.504-15.715-7.84-29.452 2.6-9.775 8.133-17.192 13.983-19.752v-.014z" fill="#00ABFF"/><path d="M76.18 126.053l2.24-3.109-2.24-1.366v4.475zm32.795 25.36c.886 0 1.142-1.277.293-1.528-4.739-1.402-7.33-3.609-8.246-5.24-.803-1.431-.623-4.361.571-7.719 0 0 .045-.148.135-.428l-11.715-6.716c-1.945 6.118-3.455 10.849-3.74 11.742-.796 2.487-4.536 5.689-10.093 7.542v2.347h32.795z" fill="#008BFF"/><path d="M8.034 92.148c-.106-2.09.28-4.795 2.857-8.449l.053-.074c.046-.067.1-.14.152-.207l-6.328-3.61c-.22.327-.44.645-.637.971-2.077 3.313-2.964 6.107-3.26 8.597a19.07 19.07 0 00-.075 3.58c.197 3.12 2.463 6.321 5.002 7.9 1.57.978 3.479 1.675 5.404 2.075v-6.24c-1.811-.853-3.054-2.342-3.168-4.543z" fill="#00ABFF"/><path d="M4.385 141.86c-4.037-4.345-1.05-9.855-2.034-9.84-.813.015-4.015 5.722-1.242 12.308 1.605 3.807 5.783 6.153 8.874 6.88.332.076.754.152 1.22.205v-5.889c-2.803-.485-5.125-1.847-6.818-3.672v.008z" fill="#3AF"/><path d="M76.18 149.182c-.99.295-2.045.556-3.14.767-.95.183-.692 1.463.274 1.463h2.857v-2.237l.009.007zm-35.615.679c-.975-.385-1.839-.701-2.137-.829-2.308-.957-3.886-1.869-4.936-2.841l-8.845 5.222h15.635c.879 0 1.11-1.236.283-1.56v.008zm30.289-25.207l-6.881 9.677c-.3.402-.451-3.322-.541-5.386l-11.899 6.883 1.923 15.234a.397.397 0 00.398.351h3.05a.41.41 0 00.323-.157l18.952-24.97v-4.708l-5.325 3.084v-.008zm-.668 78.293c-3.606-2.674-8.198-1.102-8.198-1.102s.307 5.217 3.752 7.775c3.27 2.427 8.198 1.101 8.198 1.101s-.087-5.054-3.752-7.774zm-25.904-6.124c2.86.573 5.758-1.842 5.758-1.842s-1.497-3.298-4.698-3.933c-3.15-.635-5.758 1.842-5.758 1.842s1.682 3.329 4.698 3.933zM29.41 184.231s1.154-2.58-.176-4.864c-1.307-2.247-4.157-2.595-4.157-2.595s-1.077 2.716.176 4.864c1.184 2.043 4.157 2.595 4.157 2.595zm-16.931-16.61c1.433.567 3.204-.246 3.204-.246s-.425-1.68-2.023-2.313c-1.577-.62-3.205.246-3.205.246s.519 1.72 2.024 2.313z" fill="#00ABFF"/><path d="M5.229 80.011l5.876 3.527.098-.145V73.096c-2.322 2.121-4.42 4.533-5.974 6.915z" fill="#008BFF"/><path d="M63.416 127.639c-.388-3.14-1.03-8.562-1.732-14.435l-13.885-8.036 3.86 30.581 11.824-6.843c-.03-.637-.052-1.119-.067-1.267zm10.58-7.553l-3.045 4.475 5.228-3.162-2.183-1.313zM27.267 93.234c-1.293 1.408-2.883 2.248-3.93 2.837-2.623 1.489-5.648 2.027-8.463 1.872-1.345-.074-2.608-.361-3.67-.87v6.205c1.307.272 2.622.412 3.825.398 3.5-.037 8.352-1.202 11.064-3.014 1.605-1.076 3.73-2.63 5.275-5.062l-4.094-2.366h-.007zm4.265 48.667c0-1.357.56-3.789 1.727-8.146.84-3.461 5.932-20.343 9.312-31.488l-5.195-3.066a308876.36 308876.36 0 01-10.67 36.181c-.863 2.954-2.59 6.9-3.66 7.922-2.316 2.2-7.866 2.417-10.278 2.297a12.98 12.98 0 01-1.565-.171v5.804c.908.112 1.978.179 2.841.179h10.53l8.766-5.17c-1.35-1.253-1.808-2.618-1.808-4.342z" fill="#14C7FF"/><path d="M73.938 120.277l2.24 1.301v-4.476l-2.24 3.175zM58.922 93.98l-11.871 6.996.543 4.357 13.647 8.04c-.8-6.803-1.68-14.206-2.319-19.393z" fill="#00ABFF"/><path d="M40.861 63.183c-8.914-1.968-19.478 1.801-26.691 7.184a39.533 39.533 0 00-2.967 2.45v10.721c2.737-3.875 5.8-5.948 8.42-7.539 3.898-2.367 7.966-3.973 11.702-4.214l11.978-7.117.762-.453a17.676 17.676 0 00-3.204-1.032zm177.821 29.583c-5.371 2.597-9.553 7.114-13.297 11.86v8.001c2.919-3.897 5.809-7.27 7.896-9.824.869-1.055 3.455-2.494 3.299-2.074-.721 1.956 1.255 4.665 2.592 5.351 3.499 1.801 7.897.023 9.13-2.782 1.256-2.842 1.656-6.466-.936-9.477-2.31-2.687-5.802-2.458-8.691-1.063l.007.008z" fill="#14C7FF"/><path d="M205.377 91.076c-.231-1.949-7.258 0-10.136 1.258-4.879 2.135-8.999 5.527-12.591 9.418a48.843 48.843 0 00-3.406 4.158l4.254 2.477c3.257-2.804 6.15-4.783 7.005-4.642 1.019.164-.788 5.364-1.011 6.138 0 .022-.186.647-.491 1.718l11.981 6.993a101.087 101.087 0 014.402-6.39v-8.064c-1.852 2.373-3.599 4.798-5.324 7.082.751-3.095 5.123-16.835 5.324-19.907v-.231l-.007-.008z" fill="#008BFF"/><path d="M268.86 83.037l-13.359-7.704c-2.245 8.364-4.317 16.476-5.046 18.792a8.364 8.364 0 01-1.006 2.093l18.968-10.932c.142-.735.293-1.485.45-2.25h-.007zm265.13 52.228c-.168-1.057-2.445 1.383-3.267 2.122-.381.347-.785.709-1.203 1.064v4.757c2.162-2.686 4.668-6.712 4.47-7.943zm-1.419-25.241c1.078-3.998 2.361-8.294.441-12.255-.759-1.566-1.989-2.879-3.492-3.789v26.106c1.48-4.826 2.748-8.958 3.051-10.062zm-65.417-11.511c3.238-.705 6.012.045 6.595.735 1.01 1.186-1.476 1.794-3.121 4.675-2.692 4.705 1.173 10.093 6.137 9.387 4.766-.675 7.391-6.183 7.185-10.625-.199-4.42-3.371-7.969-7.31-9.65-3.341-1.425-7.487-1.726-12.097-.63v6.91a17.495 17.495 0 012.604-.81l.007.008zm44.365-5.982c-6.78 1.63-12.408 5.566-16.355 11.146l20.912-11.934c-1.507.154-3.028.42-4.557.788zm-98.956 4.779c-.838 6.704-2.668 13.372-4.12 19.966-1.734 7.858-5.447 16.372-4.113 24.558.46 2.827 1.749 5.648 4.372 7.017 3.483 1.809 5.557.886 6.988.387 4.697-1.637 7.824-5.633 10.329-9.741.489-.804 2.438-3.483 1.8-4.495-.644-1.027-2.8 1.414-3.289 1.883-1.883 1.808-5.38 4.896-8.218 4.167-2.289-.588-1.6-4.242-1.371-5.909.689-4.919 6.551-28.658 8.677-37.663l-9.796-5.737c-.526 1.63-1.059 3.936-1.259 5.559v.007zm34.777 22.885a42.563 42.563 0 013.011-7.128l-8.517-4.915c-4.031 5.442-6.541 11.478-7.986 17.372-1.232 5.043-.646 10.003.715 13.955l11.195-6.466c-.57-4.253.335-8.889 1.582-12.818z" fill="#14C7FF"/><path d="M456.263 142.586c-4.55-.289-8.597-2.245-10.081-6.874a16.485 16.485 0 01-.643-2.946l-10.871 6.539c1.027 3.091 2.496 5.573 3.951 7.004 8.53 8.397 21.802 4.378 25.923 2.299v-6.989c-2.496.747-5.273 1.165-8.279.975v-.008z" fill="#008BFF"/><path d="M418.831 88.933c-2.391-.514-3.113.184-3.665 1.158-.198.353-.427.96-.662 1.703l9.728 5.916c.361-1.604.618-2.755.714-3.269.272-1.45-3.495-4.94-6.115-5.508zm29.992 11.773a42.525 42.525 0 00-7.432 7.793l8.391 4.874c1.326-2.493 2.908-4.844 4.736-6.934 2.622-3.001 6.376-5.665 10.025-7.076v-6.874c-4.863 1.134-10.235 3.769-15.72 8.225v-.008z" fill="#00ABFF"/><path d="M254.677 150.034l-14.297-8.318c-3.127 14.528-7.674 33.354-11.843 42.515l18.406-10.704c2.568-6.624 5.211-14.453 7.734-23.501v.008zm118.905-6.08c-.05.304-.086.579-.108.818-.492 5.388 2.895 6.8 5.139 6.627 1.889-.152 3.647-.667 5.269-1.434l-10.292-6.011h-.008zm-33.75 7.705c-.066.257.117.5.373.5l10.694-.016a.387.387 0 00.373-.295l3.143-11.521c.562-1.643 1.176-3.778 1.834-5.965l-10.058-6.071c-2.916 10.522-5.723 20.983-6.366 23.36l.007.008z" fill="#14C7FF"/><path d="M528.797 94.015c-4.06-2.019-8.38-2.589-12.834-2.116l-20.676 12.15c-.142.203-.275.405-.41.608-1.541 2.371-3.761 5.959-2.957 6.514.566.39 3.367-2.844 3.844-3.377 3.865-4.323 10.137-7.197 15.73-8.413 7.002-1.523 10.026 1.359 10.264 3.445.194 1.628-1.34 7.55-1.638 8.9-.06.278-.7.676-1.453.901-3.389 1.028-12.2 4.075-17.511 6.574-2.718 1.283-10.457 5.599-14.099 11.677a26.637 26.637 0 00-1.602 3.122l11.746 6.905 10.853 6.379a32.865 32.865 0 002.353-1.876c.127-.113.343-.023.328.15a5.7 5.7 0 00.901 3.827l4.566 2.687c5.512.825 10.055-4.466 11.91-6.417.424-.45.908-1.028 1.407-1.688v-4.931c-1.363 1.216-2.919 2.334-4.692 2.417-1.162.052-.901-1.066-.715-1.952.432-2.123 3.165-11.302 5.407-18.806V94.428a8.827 8.827 0 00-.737-.413h.015zm-10.525 23.873s-5.087 18.229-5.467 18.574c-3.47 3.122-9.116 5.141-11.716 5.141-2.152 0-5.512-2.439-3.575-8.105 2.056-5.982 6.89-10.364 11.694-12.503 2.152-.953 4.908-2.297 8.536-3.61a.409.409 0 01.528.503z" fill="#008BFF"/></svg>