<svg width="498" height="214" fill="none" xmlns="http://www.w3.org/2000/svg"><path d="M79.263 137.106H68.364c-3.6 0-6.653-3.069-6.653-6.676 0-3.608 3.052-6.676 6.653-6.676h30.65v-14.877h-30.65c-12.036 0-21.816 9.67-21.816 21.553 0 11.882 9.78 21.552 21.816 21.552h10.899c3.601 0 6.653 3.068 6.653 6.676s-3.052 6.676-6.653 6.676H43.06l8.227 14.877h27.995c12.036 0 21.816-9.67 21.816-21.553 0-11.883-9.78-21.552-21.816-21.552h-.019zm344.758-11.334l-7.91-16.941-3.453 6.327h-19.5v-11.981h12.254l11.552-21.115 7.114 15.219 8.706-18.439 11.363 24.335h10.793v11.981h-18.552l-3.661-7.825-8.706 18.439z" fill="#8250D2"/><path d="M176.165 74.968c9.69-3.374 16.671-12.717 16.671-23.671 0-13.797-11.064-25.016-24.649-25.016h-35.261v73.191h15.052v-58.03h20.209c5.287 0 9.596 4.416 9.596 9.855 0 5.44-4.309 9.855-9.596 9.855h-18.27l23.67 38.34h17.724l-15.128-24.524h-.018z" fill="#39C9C5"/><path d="M253.295 26.593h14.969V98.65h-29.227l-15.754-35.448-15.755 35.448h-16.391l32.146-72.34 29.994 67.554V26.593h.018zm122.558 57.045h-23.8V41.605h28.441V26.593h-43.41V98.65h30.649l8.12-15.013zm2.732-14.205l-9.449-16.4-9.449 16.4h18.898zM139.793 156.43c0 5.273-4.284 9.57-9.542 9.57s-9.543-4.297-9.543-9.57v-47.101h-14.969v47.101c0 13.548 11.002 24.582 24.512 24.582 13.509 0 24.511-11.034 24.511-24.582v-47.101h-14.969v47.101zm22.454 24.957h14.969v-72.039h-14.969v72.058-.019zm37.422-72.058H184.7v72.058h41.913v-15.012h-26.944v-57.046zm121.248 52.805l-35.925-57.046v91.311h14.969v-39.444L335.886 214v-97.147h-14.969v45.299-.019zm-86.819 19.253h43.41v-15.012h-28.441V124.34h28.441v-15.012h-43.41v72.058zm42.343-29.217l-9.449-16.401-9.449 16.401h18.898zM423.155 9.404l-74.844 138.411h16.821l58.023-107.299 58.024 107.299H498L423.155 9.404zm-47.302 74.234h-23.8V41.605h28.441V26.593h-43.41V98.65h30.649l8.12-15.013zm-264.538 1.97c3.424-6.886 6.923-18.445 3.798-33.626l12.556-47.138c.823-3.115-2.302-5.818-5.258-4.504L86.953 16.028A51.93 51.93 0 0063.92 10.66a51.869 51.869 0 00-23.034 5.367L5.391.34C2.453-.974-.69 1.73.133 4.844l12.555 47.138c-3.106 15.18.375 26.74 3.799 33.627C22.044 96.755 30.782 99.382 36.489 98.5c9.973-1.52 16.204-13.249 14.033-25.671-2.189-12.423-13.247-23.006-24.474-18.596 4.06-17.19 19.479-30.006 37.853-30.006 18.374 0 33.774 12.835 37.853 30.006-11.227-4.41-22.285 6.173-24.475 18.596-2.189 12.422 4.06 24.15 14.034 25.67 5.707.864 14.445-1.763 20.002-12.891zm196.748-30.511h-10.759c-3.555 0-6.568-3.096-6.568-6.737 0-3.64 3.013-6.737 6.568-6.737h32.314v-15.03h-32.314c-11.882 0-21.537 9.757-21.537 21.748 0 11.991 9.655 21.75 21.537 21.75h10.759c3.555 0 6.568 3.095 6.568 6.736 0 3.64-3.013 6.737-6.568 6.737h-32.314v15.012h32.314c11.882 0 21.536-9.758 21.536-21.75 0-11.99-9.654-21.748-21.536-21.748v.019z" fill="#000"/></svg>