<svg width="558" height="234" fill="none" xmlns="http://www.w3.org/2000/svg"><path d="M295.831 42.597V25.912l36.485-12.064L290.798 0v42.597c-52.481 1.32-94.763 43.737-94.763 95.683 0 51.947 43.639 95.72 97.28 95.72 53.64 0 97.286-42.936 97.286-95.72s-42.281-94.362-94.762-95.683h-.008zm34.966 95.683c0 40.308-18.888 74.357-30.849 85.36a93.484 93.484 0 01-5.709.238c3.207-12.36 13.634-54.885 13.634-85.598s-10.42-73.223-13.627-85.59c1.915.022 3.823.094 5.702.238 11.961 11.01 30.849 45.059 30.849 85.36v-.008zm-74.965 0c0-40.308 18.888-74.356 30.849-85.36a93.005 93.005 0 015.709-.237c-3.214 12.374-13.627 54.884-13.627 85.59 0 30.706 10.42 73.237 13.634 85.598a87.716 87.716 0 01-5.709-.239c-11.961-11.01-30.849-45.058-30.849-85.359l-.007.007zm-49.531 0c0-42.734 31.993-78.255 73.651-84.601-21.522 11.754-53.956 45.181-53.956 84.601s32.441 72.848 53.956 84.602c-41.658-6.347-73.651-41.861-73.651-84.602zm100.369 84.602c21.522-11.754 53.956-45.182 53.956-84.602s-32.442-72.847-53.956-84.601c41.657 6.346 73.651 41.86 73.651 84.601s-31.994 78.255-73.651 84.602z" fill="#FFE05C"/><path d="M557.978 154.405c0-7.091-5.854-12.852-13.046-12.852h-.543c-.169-4.016-2.571-7.634-6.288-9.364l-4.473-2.084-2.028-4.443c-1.762-3.864-5.641-6.361-9.938-6.404h-.11c-4.253 0-8.132 2.417-9.953 6.209l-2.087 4.342a11.216 11.216 0 00-4.627-1.057h-.11c-4.253 0-8.132 2.417-9.954 6.209l-2.115 4.407-4.51 1.997c-.103.044-.198.102-.301.145h-15.888c-7.199 0-13.046 5.767-13.046 12.852v21.579c-1.991.391-4.224 1.267-7.404 2.859l.132-24.576c.022-3.444-1.329-6.686-3.797-9.132-2.469-2.446-5.752-3.792-9.249-3.792h-13.302c-6.148.072-11.297 4.393-12.583 10.088h-.169l-11.422.101c-5.443.043-10.1 3.408-12.003 8.112a12.695 12.695 0 00-5.582-1.302h-37.146c-.228 0-.448.021-.669.036.037-1.151.059-2.316.059-3.495 0-7.107-5.847-12.896-13.031-12.91l-19.832-.029a12.394 12.394 0 002.938-8.018v-5.746a13.123 13.123 0 005.237 1.093l43.456-.073c2.336 0 4.517-.622 6.413-1.693.293.362.616.709.954 1.049l11.804 11.629c2.513 2.475 5.803 3.836 9.27 3.836 4.606 0 8.925-2.497 11.276-6.52l2.049-3.51c3.276-5.623 1.778-12.794-3.489-16.688l-12.348-9.125c-2.218-1.642-5.002-2.54-7.837-2.54-1.763 0-3.467.34-5.039.984l.014-6.578c0-3.437-1.344-6.672-3.812-9.103a13.074 13.074 0 00-9.233-3.777h-43.471c-1.865 0-3.636.39-5.237 1.092v-6.31c0-6.933-5.722-12.57-12.759-12.57h-58.808c-7.037 0-12.759 5.638-12.759 12.57v15.218l-5.92-18.75c-1.682-5.318-6.802-9.038-12.458-9.038h-3.225c-3.188 0-6.148 1.057-8.469 2.967-2.329-1.896-5.318-2.967-8.499-2.967h-18.048c-5.281 0-10.151 3.25-12.112 8.083l-20.803 51.227c-1.645 4.06-1.197 8.568 1.205 12.056.338.493.72.963 1.124 1.397-6.582.651-11.738 6.137-11.738 12.787v7.511h-4.716c-2.483 0-4.885.731-6.934 2.005-2.218-1.643-4.951-2.62-7.816-2.62h-4.429c-1.66 0-3.254.29-4.738.84a12.929 12.929 0 00-4.54-.84h-4.429c-2.328 0-4.532.572-6.456 1.621l-3.989-12.62c-1.682-5.319-6.802-9.038-12.458-9.038H68.91c-3.188 0-6.148 1.056-8.469 2.966-2.328-1.895-5.318-2.966-8.498-2.966H33.894c-5.282 0-10.152 3.249-12.113 8.083L.979 201.052c-1.646 4.059-1.198 8.568 1.204 12.056 2.402 3.488 6.479 5.572 10.915 5.572h18.048c5.282 0 10.152-3.249 12.113-8.083l16.689-41.111 12.678 40.155c1.682 5.319 6.802 9.039 12.458 9.039h3.225c4.26 0 8.117-1.889 10.577-5.181 2.461-3.293 3.144-7.483 1.881-11.492l-.617-1.954h2.622c.096 0 .191 0 .286-.007l-.521 1.216c-1.638 3.799-1.403 7.981.639 11.477 2.042 3.495 5.597 5.789 9.755 6.303l.955.115c.514.066 1.043.095 1.564.095 4.694 0 9.197-2.591 11.459-6.607l5.73-10.146v3.604c0 7.092 5.854 12.852 13.045 12.852h51.999c7.198 0 13.045-5.768 13.045-12.852v-1.295c0-1.896-.426-3.691-1.182-5.312 1.461.586 3.055.919 4.73.919h38.145c3.379 0 6.567-1.31 8.969-3.683a13.013 13.013 0 003.555-6.564c.867.174 1.756.268 2.659.268h17.321c7.198 0 13.045-5.768 13.045-12.852v-8.004h7.082c-.926 5.015-2.711 9.198-5.392 12.65-3.489 4.486-8.727 8.133-16.483 11.477-2.211.955-3.879 1.896-5.252 2.981-3.813 3.003-5.531 7.425-4.598 11.817.367 1.723 2.152 7.49 9.754 9.249 1.668.383 3.629.579 5.84.579h.485c14.103-.181 25.929-3.814 35.133-10.797 4.569-3.467 8.403-7.664 11.503-12.57 2.314 3.3 6.111 5.463 10.416 5.463H378.3c-1.814 4.48-.756 8.091.243 10.095 2.027 4.082 6.28 6.614 11.092 6.614 1.954 0 3.973-.398 6.17-1.208a41.649 41.649 0 0016.667-11.434v1.296c0 7.178 5.722 12.808 13.023 12.808.889 0 1.792-.079 2.689-.246 12.112-2.185 22.425-6.44 30.806-12.656v1.005c0 7.092 5.855 12.852 13.046 12.852H490.4c7.198 0 13.045-5.767 13.045-12.852v-12.302h9.373c2.593 0 5.01-.759 7.044-2.055-.117.688-.191 1.39-.191 2.106v11.644c0 7.091 5.855 12.852 13.046 12.852h12.237c7.199 0 13.046-5.768 13.046-12.852v-11.644c0-1.462-.264-2.866-.72-4.183.463-1.309.72-2.713.72-4.182v-31.674l-.022-.008zM200.996 97.071l10.283 32.557a19.074 19.074 0 00-7.477-1.52H193.79a19.01 19.01 0 00-5.744.883l12.957-31.92h-.007zm-23.932 94.885v-5.29h20.589c1.323 0 2.593-.196 3.798-.558v1.462c0 1.918.433 3.734 1.183 5.37a13.105 13.105 0 00-4.988-.977h-20.589l.007-.007zm75.291-33.65h-29.676c.052-.543.081-1.093.081-1.643V146.8c0-.333-.007-.666-.029-.999 1.094.297 2.233.463 3.401.463h3.224c2.748 0 5.319-.788 7.463-2.221a12.784 12.784 0 007.5 2.424h13.34c-1.888 2.222-3.034 5.08-3.041 8.192l-.015 3.857a12.655 12.655 0 00-2.248-.21zm264.224 5.145c.962.449 1.991.767 3.056.926v4.096a13.01 13.01 0 00-4.643-1.737l1.58-3.285h.007z" fill="#540E02"/><path d="M544.97 146.553h-6.265a6.425 6.425 0 001.336-3.84 6.508 6.508 0 00-3.783-5.956l-5.935-2.775-2.695-5.912c-1.058-2.319-3.386-3.819-5.965-3.848h-.066c-2.556 0-4.877 1.449-5.972 3.732l-2.813 5.854-3.585 1.587a6.65 6.65 0 00-4.341-1.667h-.066c-2.556 0-4.877 1.45-5.972 3.732l-2.813 5.854-5.994 2.659a7.342 7.342 0 00-.955.529h-17.041c-4.767 0-8.638 3.826-8.638 8.521v25.932a7.503 7.503 0 00-1.822-.232c-2.152 0-4.54.841-9.123 3.218l-.771.405c-1.528.797-3.019 1.573-4.54 2.283l.169-31.765c.015-2.283-.881-4.434-2.512-6.057a8.632 8.632 0 00-6.126-2.515h-13.251c-4.709.058-8.543 3.877-8.543 8.528v2.602a8.708 8.708 0 00-4.121-1.022h-.066l-11.459.101c-4.745.044-8.586 3.877-8.564 8.55.022 4.92-.316 9.376-.889 13.361l.169-6.34c.059-2.362-.845-4.651-2.468-6.289a8.213 8.213 0 00-5.877-2.456h-37.145c-2.101 0-4.019.804-5.488 2.115.309-3.166.463-6.477.463-9.926 0-4.724-3.871-8.572-8.631-8.579l-65.088-.094h-.014c-4.753 0-8.623 3.811-8.645 8.499l-.045 11.296c-1.535-2.007-3.93-3.311-6.618-3.311h-36.977a18.991 18.991 0 002.975-10.209c0-10.644-8.778-19.303-19.568-19.303-10.791 0-19.568 8.659-19.568 19.303 0 3.963 1.219 7.651 3.305 10.723h-9.872v-8.296c0-4.702-3.879-8.521-8.638-8.521h-18.364c-4.767 0-8.638 3.826-8.638 8.521v12.716a9.49 9.49 0 00-3.952-.848h-5.171c-2.836 0-5.59 1.515-7.184 3.819-1.498-2.652-4.415-4.427-7.566-4.427h-4.429c-1.726 0-3.35.463-4.723 1.318a8.66 8.66 0 00-4.554-1.318h-4.43c-2.82 0-5.37 1.231-6.993 3.376a8.168 8.168 0 00-1.329 2.63l-6.332-20.07c-1.109-3.529-4.503-5.992-8.249-5.992h-3.224c-2.85 0-5.407 1.246-7.03 3.42a8.223 8.223 0 00-1.425 3.137 8.128 8.128 0 00-1.249-2.884c-1.601-2.333-4.253-3.673-7.264-3.673H33.905c-3.445 0-6.743 2.202-8.021 5.354L5.082 203.395c-1.117 2.761-.845 5.688.756 8.021 1.602 2.333 4.253 3.673 7.265 3.673H31.15c3.446 0 6.744-2.202 8.022-5.354l20.802-51.292a9.472 9.472 0 00.463-1.543c.066.304.14.609.235.913l16.174 51.292c1.117 3.528 4.51 5.992 8.25 5.992h3.224c2.85 0 5.406-1.247 7.03-3.42 1.623-2.174 2.064-4.956 1.219-7.637l-2.953-9.369c1.484 1.116 3.313 1.775 5.208 1.775h3.959a8.832 8.832 0 004.951-1.485 8.882 8.882 0 002.174 1.058l-3.305 7.68c-1.095 2.544-.948 5.319.396 7.623 1.345 2.304 3.71 3.825 6.486 4.166l.955.116c.338.043.676.065 1.021.065 3.122 0 6.104-1.717 7.61-4.376l13.986-24.809v20.367c0 4.703 3.878 8.521 8.638 8.521h51.998c4.767 0 8.639-3.826 8.639-8.521v-1.297c0-4.702-3.879-8.521-8.639-8.521h-24.996v-13.991h24.996c3.827 0 7.074-2.463 8.205-5.869v11.115c0 4.702 3.761 8.521 8.388 8.521h38.145a8.29 8.29 0 005.855-2.413 8.673 8.673 0 002.541-6.13v-4.724c.199.268.426.522.669.768a8.635 8.635 0 006.118 2.507h17.321c4.767 0 8.638-3.826 8.638-8.521v-12.361h16.469c-1.506 19.571-12.877 27.215-25.092 32.482-1.844.797-3.203 1.558-4.268 2.399-3.585 2.833-3.32 6.224-3.041 7.549.294 1.399 1.52 4.775 6.449 5.913 1.337.311 2.96.464 4.826.464h.426c25.312-.319 42.045-12.347 48.767-34.403v7.942c0 4.702 3.746 8.52 8.351 8.52h36.713c1.19 0 2.328-.268 3.364-.739-.698 1.305-1.418 2.42-2.13 3.326-3.467 4.413-2.953 7.854-1.903 9.956 1.3 2.623 3.967 4.188 7.133 4.188 1.417 0 2.923-.305 4.612-.935 6.795-2.529 16.843-8.608 22.632-23.063v16.977c0 4.832 3.702 8.477 8.616 8.477.617 0 1.256-.058 1.895-.174 14.698-2.659 26.546-8.485 35.229-17.317.257-.268.521-.529.778-.797v10.724c0 4.702 3.879 8.52 8.639 8.52h18.363c4.767 0 8.638-3.825 8.638-8.52v-16.665h13.78c4.768 0 8.639-3.826 8.639-8.521V180.1c0-4.702-3.879-8.52-8.639-8.52h-13.78v-4.181a6.65 6.65 0 005.465 2.963h.067c2.556 0 4.877-1.449 5.971-3.731l2.814-5.855 3.584-1.587a6.64 6.64 0 004.341 1.667h.066c.963 0 1.888-.203 2.733-.587v46.568c0 4.702 3.878 8.52 8.638 8.52h12.238c4.767 0 8.638-3.825 8.638-8.52v-50.618c0-5.413-3.798-9.644-8.638-9.644l.014-.022z" fill="#fff"/><path d="M146.971 139.352c1.616 2.19 4.2 3.445 7.092 3.445H172.1c3.443 0 6.74-2.205 8.017-5.367l20.79-51.338c.206-.507.353-1.03.463-1.552.066.305.139.617.235.921L217.77 136.8c1.109 3.532 4.5 5.998 8.245 5.998h3.222c2.848 0 5.411-1.248 7.026-3.423.22-.298.411-.602.587-.921a8.662 8.662 0 007.628 4.547h58.194c4.764 0 8.633-3.829 8.633-8.529V81.19c0-4.547-3.744-8.246-8.347-8.246h-58.774c-4.603 0-8.347 3.699-8.347 8.246v43.883l-14.528-46.131c-1.109-3.532-4.5-5.998-8.245-5.998h-3.222c-2.849 0-5.403 1.248-7.026 3.423a8.29 8.29 0 00-1.439 3.17 8.17 8.17 0 00-1.402-3.148c-1.615-2.19-4.199-3.445-7.092-3.445h-18.037c-3.443 0-6.739 2.205-8.017 5.36l-20.79 51.337c-.543 1.349-.756 2.756-.631 4.12a8.213 8.213 0 001.556 5.584l.007.007zm174.431-13.442l43.363-.072a8.629 8.629 0 007.947-5.26c0 2.246.902 4.412 2.559 6.049l11.78 11.642c1.672 1.652 3.857 2.564 6.144 2.564 3.072 0 5.85-1.622 7.434-4.346l2.045-3.514a8.451 8.451 0 00-.257-8.896 7.82 7.82 0 00-2.529-3.202l-12.323-9.135c-1.335-.985-3.013-1.528-4.744-1.528-1.612 0-3.144.456-4.435 1.318l-1.495 1.007a7.863 7.863 0 00-2.991 3.76c-.206.34-.374.695-.528 1.058v-.022l.036-16.343v-1.449a8.398 8.398 0 00-2.521-6.034A8.615 8.615 0 00364.78 91h-43.385c-4.758 0-8.622 3.825-8.622 8.52v17.864c0 4.701 3.871 8.519 8.622 8.519l.007.007z" fill="#fff"/><path d="M525.522 138.188L521.777 130l-3.91 8.115-8.324 3.684 8.25 3.846 3.745 8.188 3.91-8.115 8.324-3.684-8.25-3.846zm-473.29 14.201H34.06c-.762 0-1.613.568-1.901 1.268l-20.946 51.581c-.614 1.523.237 2.762 1.9 2.762h18.173c.762 0 1.612-.569 1.9-1.268l20.947-51.582c.613-1.523-.237-2.761-1.901-2.761zm21.798 1.413c-.243-.779-1.116-1.413-1.938-1.413H68.87c-1.52 0-2.385 1.173-1.938 2.616l16.162 51.581c.242.78 1.116 1.414 1.938 1.414h3.222c1.519 0 2.385-1.173 1.937-2.616L74.03 153.802zm58.91 19.546h-5.17c-.741 0-1.578.553-1.865 1.223l-13.371 31.24c-.58 1.347.147 2.6 1.615 2.782l.955.117c.749.094 1.659-.365 2.026-1.02l17.579-31.363c.926-1.647.125-2.994-1.776-2.994l.007.015zm-31.311.764c-.219-.827-1.093-1.501-1.953-1.501h-4.392c-1.487 0-2.353 1.16-1.93 2.575l3.75 12.6c.234.79 1.108 1.436 1.931 1.436h3.927c1.428 0 2.309-1.132 1.952-2.51l-3.278-12.6h-.007zm14.546 15.11c1.429 0 2.311-1.132 1.954-2.51l-3.28-12.6c-.219-.827-1.094-1.501-1.954-1.501H108.5c-1.487 0-2.355 1.16-1.932 2.575l3.754 12.6c.233.79 1.108 1.436 1.932 1.436h3.929-.008zm81.506-19.204h-29.439a2.02 2.02 0 01-2.019-2.011v-12.885a2.018 2.018 0 00-2.018-2.011h-18.281a2.018 2.018 0 00-2.018 2.011v51.589a2.02 2.02 0 002.018 2.011h51.764a2.018 2.018 0 002.018-2.011v-1.305a2.018 2.018 0 00-2.018-2.011h-29.439a2.019 2.019 0 01-2.018-2.012v-23.159c0-1.108.906-2.012 2.018-2.012h29.439a2.018 2.018 0 002.018-2.011v-2.15a2.018 2.018 0 00-2.018-2.011l-.007-.022zm54.535-1.011h-38.245c-.98 0-1.783.889-1.783 1.979v16.257c0 1.09.803 1.979 1.783 1.979h38.283c.987 0 1.791-.896 1.783-1.986L254 170.979c0-1.09-.803-1.979-1.784-1.979v.007zm80.579-16.524l-64.894-.094a2.026 2.026 0 00-2.028 2.001l-.088 22.93c0 1.109.908 2.008 2.021 2.008h17.267a2.015 2.015 0 002.021-2.001v-16.891c0-1.102.908-2.001 2.021-2.001h25.717c1.106 0 2.021.899 2.021 1.994 0 24.887-12.639 35.871-29.136 43.012-6.21 2.682-3.149 3.893 1.662 3.835 15.333-.196 45.422-5.061 45.422-52.727 0-1.131-.879-2.052-2.021-2.059l.015-.007zm50.942 16.524h-36.926c-.95 0-1.731.889-1.731 1.979v16.257c0 1.09.774 1.979 1.731 1.979h36.926c.928 0 1.702-.868 1.724-1.929v-16.257c.029-1.118-.752-2.036-1.731-2.036l.007.007zm29.051-6.507l-11.44.101c-1.109.007-2.019.912-2.012 2.006.03 6.415-.631 26.861-9.648 38.322-2.387 3.041-1.366 4.467 2.283 3.114 8.709-3.237 22.153-12.859 22.858-41.473.03-1.143-.888-2.07-2.048-2.063l.007-.007zm43.162 26.759c-3.941 2.028-7.726 4.062-12.577 5.424-1.43.398-2.6-.493-2.585-1.941l.207-38.34c0-1.123-.926-2.028-2.074-2.013h-13.258c-1.111.014-2.022.912-2.022 2.006v51.648c0 1.557 1.162 2.173 2.725 1.89 6.859-1.231 21.102-4.496 31.939-15.43 6.185-6.234 5.8-7.429-2.355-3.237v-.007zm56.706-11.841h-18.343c-1.115 0-2.025-.898-2.025-1.998v-21.034c0-1.1-.91-1.997-2.025-1.997h-18.344c-1.115 0-2.024.897-2.024 1.997v52.338c0 1.1.909 1.998 2.024 1.998h18.344c1.115 0 2.025-.898 2.025-1.998V185.56c0-1.1.91-1.997 2.025-1.997h18.343c1.115 0 2.025-.898 2.025-1.998v-2.135c0-1.1-.91-1.998-2.025-1.998v-.014zm-7.762-38.029l-3.911 8.118-8.327 3.677 8.253 3.847 3.739 8.191 3.91-8.11 8.327-3.686-8.252-3.846-3.739-8.191zm27.95 13h12.133c1.114 0 2.01.89 2.01 1.981v31.426c0 1.098-.903 1.982-2.01 1.982h-12.133c-1.114 0-2.01-.891-2.01-1.982V154.37c0-1.098.903-1.981 2.01-1.981zm0 39.722h12.133a2.02 2.02 0 012.01 2.029v11.83a2.02 2.02 0 01-2.01 2.03h-12.133a2.02 2.02 0 01-2.01-2.03v-11.83c0-1.125.903-2.029 2.01-2.029zM203.57 138.667h-9.931c-4.354 0-7.883 3.471-7.883 7.754v9.769c0 4.282 3.529 7.754 7.883 7.754h9.931c4.354 0 7.883-3.472 7.883-7.754v-9.769c0-4.283-3.529-7.754-7.883-7.754z" fill="#FC5832"/><path d="M187.225 152.053l8.282-3.78 3.806-8.162 3.843 8.147 8.298 3.744-8.283 3.78-3.806 8.162-3.843-8.147-8.297-3.744z" fill="#fff"/><path d="M193.201 80.166h-18.173c-.761 0-1.612.569-1.9 1.268l-20.946 51.582c-.614 1.523.237 2.762 1.901 2.762h18.172c.762 0 1.612-.569 1.901-1.268l20.945-51.582c.614-1.523-.236-2.761-1.9-2.761zm21.798 1.414c-.243-.78-1.116-1.413-1.938-1.413h-3.222c-1.52 0-2.386 1.173-1.938 2.615l16.161 51.582c.243.78 1.116 1.414 1.938 1.414h3.222c1.52 0 2.386-1.174 1.938-2.616L214.999 81.58zm150.065 16.657h-43.646c-1.121 0-2.035.889-2.035 1.979v16.249c0 1.09.922 1.987 2.043 1.979l43.608-.071c1.121 0 2.035-.89 2.035-1.98l.037-16.184c0-1.09-.914-1.987-2.035-1.987l-.007.015zm31.354 27.5l-12.127-9.09c-.628-.469-1.674-.498-2.316-.051l-1.472 1.002c-1.096.743-1.226 2.12-.288 3.057l11.593 11.584c1.01 1.009 2.424.822 3.138-.418l2.013-3.496c.483-.844.245-2.004-.534-2.588h-.007zm-93.463-45.571h-58.92c-.963 0-1.744.77-1.744 1.721v52.17c0 .95.781 1.721 1.744 1.721h58.92c.963 0 1.744-.771 1.744-1.721v-52.17c0-.95-.781-1.72-1.744-1.72z" fill="#FC2B22"/><path d="M273.488 121.333c-7.086 0-12.842-5.834-12.842-13h4.025c0 4.925 3.959 8.933 8.824 8.933s8.824-4.008 8.824-8.933h4.025c0 7.173-5.763 13-12.849 13h-.007zm-9.22-25.278h-2.839c-1.243 0-2.251.893-2.251 1.994v2.513c0 1.101 1.008 1.993 2.251 1.993h2.839c1.244 0 2.252-.892 2.252-1.993v-2.513c0-1.101-1.008-1.994-2.252-1.994zm22.026 0h-2.839c-1.244 0-2.252.893-2.252 1.994v2.513c0 1.101 1.008 1.993 2.252 1.993h2.839c1.243 0 2.251-.892 2.251-1.993v-2.513c0-1.101-1.008-1.994-2.251-1.994z" fill="#fff"/></svg>