<svg width="598" height="118" fill="none" xmlns="http://www.w3.org/2000/svg"><path d="M596.492 34.06c-2.192-4.58-6.407-7.796-11.573-8.824l-9.045-1.794a18.225 18.225 0 00-3.514-.342c-4.369 0-8.694 1.582-12.135 4.25-2.762-3.426-6.78-5.781-11.39-6.24l-8.213-.817c-.54-.052-1.096-.08-1.636-.08a16.658 16.658 0 00-10.375 3.601c-1.6-7.247-7.233-12.65-14.312-13.591l-8.534-1.138a16.489 16.489 0 00-2.163-.146c-8.336 0-15.54 6.359-17.125 14.934-.124.481-.256.977-.387 1.473a15.16 15.16 0 00-7.065 3.974c-.249-.015-.497-.03-.753-.03h-.46c-3.595 0-6.766.708-9.549 1.729-2.572-1.962-5.706-3.012-9.074-3.012-.271 0-.541 0-.819.022l-9.841.051c-4.376 0-7.562 1.364-9.79 2.953-3.843-3.719-7.942-5.381-11.2-6.088-4.041-.875-7.701-1.306-11.186-1.306-4.362 0-8.351.693-11.909 2.027-3.558-8.59-9.878-15.786-18.032-20.3C381.547 2.67 376.213.963 370.573.293A43.355 43.355 0 00365.437 0c-2.748 0-5.56.219-9.14.715-1.352.19-2.704.4-4.048.605l-.431.065c-3.054.482-5.911 1.204-8.439 1.838-2.104.532-4.098 1.035-5.917 1.334-5.02.824-9.279 3.464-11.99 7.452a.45.45 0 01-.051.08c-2.784-1.611-6.203-2.428-10.236-2.428-11.317 0-18.55 5.09-21.502 15.123-.263.897-.54 1.91-.796 3.004-.373-.014-.745-.036-1.125-.036-3.5 0-6.612.853-9.264 1.983-2.031-.97-4.326-1.487-6.773-1.487h-.139l-9.081.204c1.936-4.492 1.527-9.603-1.133-13.767-2.703-4.229-7.291-6.759-12.274-6.759h-.175l-4.107.087-3.075-3.28c-2.755-2.94-6.62-4.624-10.609-4.624-6.641 0-12.406 4.521-14.02 10.996l-1.089 4.36-3.514 1.86a14.397 14.397 0 00-6.174 6.293 37.826 37.826 0 00-2.016-.059c-1.111 0-2.17.051-3.178.146-2.075-1.51-4.917-2.8-8.746-3.186l-7.627-.664a16.089 16.089 0 00-7.591 1.189c-4.07-4.135-10.799-8.444-21.502-9.188a50.067 50.067 0 00-3.427-.124c-2.864 0-5.414.263-7.671.708-2.338-1.56-5.589-2.859-9.988-2.939l-8.884-.044c-9.432 0-17.147 8.116-17.199 18.12v.919c-5.15-2.808-10.988-4.368-17.213-4.368a36.88 36.88 0 00-5.582.43 37.276 37.276 0 00-9.921 2.982c-2.806-7.284-7.613-13.686-13.962-18.345-4.486-3.289-9.557-5.659-15.066-7.037-4.946-1.24-9.6-1.4-13.092-1.4h-1.118c-1.395.015-2.79.051-4.172.095h-.35c-3.09.095-6.02.452-8.607.766-2.155.262-4.194.503-6.042.568-5.085.175-9.644 2.26-12.837 5.87-3.368 3.785-4.946 8.91-4.457 14.467.015.197 1.842 20.088 3.785 36.13C5.72 73.908 6.305 98.422 6.305 98.67v.408l.044.409c.862 9.705 8.446 17.026 17.63 17.026a16.4 16.4 0 001.468-.066l9.775-.868c8.556-.758 15.153-7.816 15.818-16.843.175-1.823.168-3.785-.036-5.972-.168-1.816-.402-3.493-.636-5.119l-.124-.89-.11-1.203c3.507-1.13 7.752-2.756 11.997-5.213 5.896 14.481 19.288 24.237 34.653 24.244a35.24 35.24 0 005.326-.408 36.21 36.21 0 009.534-2.858c.731 9.267 8.074 16.595 17.031 16.639l9.249.044c8.322 0 15.27-6.161 16.841-14.62.935-3.04 1.067-5.957 1.089-8.524l.255-6.307a44.355 44.355 0 0010.412-2.632 538.576 538.576 0 01-1.586 11.331l-.058.401-.037.401c-.365 4.186.716 8.349 3.039 11.725 2.799 4.061 7.153 6.635 11.946 7.051l7.92.685a16.9 16.9 0 001.373.059c7.482 0 13.955-5.214 16.008-12.637 1.169-2.989 1.454-5.862 1.615-7.627l.504-4.046c5.282-.423 10.762-1.86 15.671-4.594l.015.729c.248 10.019 7.818 17.288 17.995 17.288h.57l8.833-.218a18 18 0 007.401-1.801c2.418 1.305 5.209 2.005 8.175 2.005h8.001c2.082 0 4.113-.379 6.056-1.13 2.148-.671 3.909-1.641 5.341-2.8 4.172 3.58 9.082 3.886 10.638 3.886 5.348 0 11.522-.51 16.753-4.287 5.421-3.923 8.175-10.04 8.175-18.193V70.116c0-5.505-.175-11.178-1.118-16.56 2.952-2.332 5.327-5.49 7.219-8.844 1.322 5.615 2.82 11.842 4.267 17.558 3.777 14.897 7.474 39.134 7.51 39.382l.059.401.087.394c1.885 8.568 9.257 14.787 17.542 14.787 1.199 0 2.397-.131 3.566-.386l9.585-2.1c8.388-1.838 14.043-9.676 13.546-18.718a28.118 28.118 0 00-.321-3.376c4.412 9.815 13.538 15.502 25.936 15.502h.271c4.924-.036 8.971-1.028 12.186-2.326 1.586.503 3.237.751 4.851.751.271 0 .548 0 .826-.022h.321c4.494-.014 9.118-.029 13.444-1.997 2.184 1.05 4.639 1.64 7.24 1.684l8 .131h.285c4.201 0 8.256-1.575 11.317-4.353 4.143-3.383 6.466-8.392 6.561-14.233l.154-9.275a120.33 120.33 0 000-3.18c0-.86-.015-1.72 0-2.58.058-3.435 2.63-4.652 3.857-4.798.417.036.972.073 1.608.073.343 0 .686-.022 1.022-.044-.124 3.485-.204 7.649-.27 13.227l-.015.897.117.89c2.017 15.18 14.693 22.53 25.608 22.939l1.98.058c1.695.051 3.164.095 4.559.095 2.126 0 6.101-.007 10.075-1.721.198.569.424 1.13.687 1.684 2.192 4.579 6.408 7.795 11.573 8.823l9.608 1.903c1.147.226 2.323.343 3.514.343 7.101 0 14.071-4.171 17.345-10.383l30.532-57.969c2.498-4.739 2.659-10.113.445-14.743l.044.03z" fill="#E6378D"/><path d="M315.767 15.39c-3.714 0-12.415 0-15.552 10.682-.541 1.847-1.309 4.87-1.689 8.184-1.923-.497-3.985-.752-6.201-.752-3.802 0-7.114 1.43-9.717 2.956-1.609-1.591-3.802-2.46-6.332-2.46l-10.2.226c-2.64.015-4.833.716-6.566 2.074l-1.382-3.84 3.107-6.673a8.543 8.543 0 00-.563-8.235c-1.557-2.438-4.189-3.899-7.041-3.899l-6.932.14-4.972-5.308c-1.579-1.687-3.795-2.658-6.076-2.658-3.78 0-7.071 2.592-7.999 6.3l-1.762 7.053-5.974 3.154c-2.552 1.35-4.197 3.89-4.402 6.811-.022.27-.015.54 0 .81a35.578 35.578 0 00-6.69-.672c-1.953 0-3.664.19-5.17.505-1.243-1.468-3.502-3.19-7.385-3.578l-7.546-.657a10.596 10.596 0 00-.833-.036c-2.947 0-5.608 1.307-7.517 3.431a23.28 23.28 0 00-1.718-2.446c-4.322-5.366-10.697-8.373-18.945-8.95a42.17 42.17 0 00-2.998-.11c-3.751 0-6.793.533-9.235 1.314-.051-.058-.102-.11-.154-.168-1.396-1.496-3.985-3.292-8.401-3.38l-8.774-.043c-6.025 0-10.961 5.35-10.99 11.95 0 .103-.015 6.17.051 14.142-5.784-7.118-14.126-11.404-23.493-11.404-1.535 0-3.093.124-4.628.358-5.718.89-10.683 3.227-14.683 6.65-1.389-9.3-6.361-17.66-13.863-23.164-3.831-2.81-8.175-4.84-12.906-6.03-4.292-1.073-8.452-1.212-11.589-1.212h-1.053c-1.36.015-2.712.051-4.065.088h-.351c-2.8.087-5.47.408-8.043.722-2.296.278-4.46.54-6.574.614-4.314.153-6.953 2.139-8.4 3.781-2.224 2.512-3.262 5.994-2.918 9.82.014.197 1.835 20.025 3.772 35.999 1.887 15.58 2.48 40.416 2.48 40.664v.204l.021.205c.578 6.49 5.499 11.389 11.45 11.389.308 0 .615-.015.922-.044l9.783-.869c5.513-.489 9.776-5.191 10.186-11.206.146-1.453.139-3.052-.03-4.885-.153-1.671-.38-3.27-.6-4.825l-.145-1.051-.563-6.3v-.11c.095-.03.19-.051.285-.08 5.052-1.424 14.47-4.082 21.906-10.805 2.742 16.39 15.765 28.238 31.134 28.245a29.18 29.18 0 004.373-.335c6.968-1.08 12.883-4.38 17.292-9.17-.314 6.03-.614 10.338-.621 10.44l-.015.204v.205c-.036 6.607 4.87 12.009 10.924 12.046l9.22.043c5.389 0 9.893-4.197 10.807-9.914.812-2.416.907-4.87.922-7.198l.49-11.995h.102c4.036 0 11.918-.664 19.347-5.132 1.667-1 3.188-2.14 4.578-3.388-1.141 11.433-3.042 23.844-3.064 24.005l-.029.204-.015.204c-.241 2.76.461 5.49 1.974 7.688 1.74 2.533 4.431 4.132 7.363 4.388l7.926.686c.278.022.556.036.834.036 4.753 0 8.877-3.482 10.112-8.395.9-2.132 1.17-4.359 1.346-6.33l1.177-9.542c.702.044 1.418.066 2.142.066 9.052 0 19.391-3.483 25.117-12.667.051 1.03.102 2.096.153 3.184.3 7.008.154 9.636.102 10.293l-.102.329.022.905c.168 6.731 4.906 11.258 11.794 11.258h.417l8.847-.22c2.625-.065 5.133-.992 7.064-2.606.256-.212.489-.438.716-.671.176.204.358.408.556.613 1.301 1.314 3.641 2.876 7.407 2.876h8.006a10.61 10.61 0 004.022-.788c5.455-1.643 6.953-6.38 7.37-10.382 1.331 9.571 7.064 11.134 10.654 11.134 5.125 0 18.733 0 18.733-16.302V69.736c0-6.702-.264-13.63-1.953-19.63 4.176-1.65 9.455-6.542 13.345-19.778.497-1.694 2.01-6.84-1.075-10.951-2.976-3.971-7.934-3.971-9.805-3.971l-.052-.015zM97.763 70.599s-.11.044-.27.073a4.33 4.33 0 01-.57.05c-.169 0-.25-.014-.264-.014-.146-.11-1.214-1.051-2.069-6.541-.512-3.3-.124-4.833.073-5.344.146-.38.227-.591 1.228-.752.205-.03.38-.044.534-.044h.132c.263.3 1.024 1.49 1.696 5.797.658 4.241-.131 6.46-.475 6.775h-.015zm493.448-34.217c-1.336-2.8-3.952-4.77-7.173-5.412l-9.043-1.794a12.02 12.02 0 00-2.302-.227c-4.857 0-9.613 2.845-11.848 7.083a878.79 878.79 0 00-3.696 7.155c.467-1.633.789-2.64.803-2.676l.212-.664.058-.693c.534-6.164-3.798-11.649-9.664-12.232l-8.211-.817a9.49 9.49 0 00-1.022-.051c-5.296 0-9.701 3.931-10.622 9.249a22.219 22.219 0 00-2.958-.577 103.46 103.46 0 00-2.55-.277c-.445-.044-1.03-.102-1.65-.168.065-.46.131-.919.189-1.364.11-.824.241-1.648.373-2.472l.022-.146a6.206 6.206 0 00.818-5.223c-.957-4.843-4.58-8.46-9.138-9.074l-8.532-1.137a10.34 10.34 0 00-1.345-.088c-5.398 0-10.08 4.296-11.045 10.066a386.342 386.342 0 01-1.592 5.908 13.279 13.279 0 00-.921-.036c-4.514 0-6.968 2.392-8.349 5.069a10.845 10.845 0 00-3.528-.65h-.358c-4.369 0-7.933 1.336-11.067 2.977a9.777 9.777 0 00-.884-1.233c-1.687-1.955-4.054-3.027-6.669-3.027-.205 0-.417 0-.621.022l-9.862.051h-.175c-3.105 0-5.61.97-7.459 2.896-1.073 1.116-1.84 2.502-2.308 4.114-3.652-6.74-8.422-9.402-12.535-10.292-3.601-.78-6.83-1.16-9.862-1.16-6.326 0-11.585 1.743-15.574 5.033-.066-.307-.124-.613-.197-.927-2.206-9.898-8.466-18.344-17.181-23.173-4.157-2.305-8.715-3.764-13.558-4.34a37.175 37.175 0 00-4.398-.248c-2.447 0-5.003.204-8.283.657-1.315.182-2.63.386-3.938.59l-.423.066c-2.769.438-5.369 1.087-7.882 1.721-2.243.562-4.354 1.102-6.436 1.437-4.251.693-6.618 3.006-7.845 4.815-1.885 2.771-2.47 6.353-1.644 10.102.044.197 4.368 19.614 8.313 35.194 3.85 15.2 7.59 39.738 7.626 39.986l.029.204.044.197c1.264 5.748 6.085 9.92 11.469 9.92a10.4 10.4 0 002.235-.241l9.584-2.1c5.406-1.182 9.029-6.383 8.671-12.4-.036-1.46-.248-3.05-.65-4.836-.365-1.634-.789-3.195-1.205-4.705l-.278-1.028-1.359-6.171c0-.037-.014-.073-.014-.11.088-.036.183-.08.27-.116 3.141-1.335 8.05-3.429 12.893-6.82-.343 1.83-.526 3.603-.518 5.098.036 15.478 8.305 24.348 22.681 24.348h.234c5.325-.037 9.314-1.401 12.177-2.925 2.046 1.24 4.201 1.349 4.902 1.349.205 0 .424 0 .643-.022h.445c4.712-.014 8.774-.021 12.156-2.093.54-.328 1.022-.7 1.468-1.087 1.3 1.306 3.572 2.801 7.217 2.86l8.182.138c2.71 0 5.325-1.036 7.261-2.86 2.776-2.217 4.339-5.616 4.405-9.642l.153-9.278c.015-1.014.015-2.028 0-3.034 0-.912-.014-1.817 0-2.728.11-6.725 5.391-10.89 10.234-10.912.314.036.826.087 1.439.087 3.624 0 6.502-1.896 7.963-5.025-.636 6.593-.84 11.838-1.001 24.493v.452l.051.445c1.775 13.378 13.653 17.338 19.745 17.565l1.878.058c1.643.05 3.068.095 4.368.095 12.053 0 14.055-6.178 15.377-15.668a13.696 13.696 0 004.828 4.223 428.033 428.033 0 01-3.272 5.361l-.117.19-.102.197c-1.578 2.99-1.695 6.339-.336 9.183 1.336 2.801 3.951 4.771 7.173 5.412l9.606 1.904c.745.146 1.519.226 2.301.226 4.858 0 9.613-2.837 11.841-7.068l30.527-57.988c1.578-2.99 1.695-6.338.336-9.19v.03zM521.347 71.65a15.97 15.97 0 00-.584-.015c-1.571 0-2.937.3-4.105.613.029-.635.08-1.335.182-2.093.117-.89.256-1.758.395-2.604.146-.927.292-1.831.416-2.743l.044-.328c.234-1.765.467-3.122.701-4.078l.906.066c1.03.08 2.199.175 3.389.175.884 0 2.155-.073 3.536-.386l-1.22 12.523a7.54 7.54 0 00-3.66-1.123v-.007z" fill="#fff"/><path d="M92.068 36.703c-14 2.154-22.607 14.965-19.943 31.837 2.472 15.718 15.82 24.94 28.579 22.976 13.471-2.074 22.797-14.885 20.222-31.235-2.576-16.349-15.475-25.637-28.858-23.578zm6.457 40.167c-7 1.08-9.018-5.104-10.045-11.6-.954-6.076-.14-12.072 6.508-13.087 6.736-1.037 8.541 4.778 9.495 10.854.873 5.553.337 12.869-5.958 13.84v-.007zM315.43 21.852c-4.674 0-8.008.672-9.65 6.293-1.406 4.8-3.6 16.61 1.737 17.016h1.531c5.624 0 9.923-11.47 11.329-16.263 1.774-6.071-.935-7.046-4.947-7.046zm-65.923 29.866l-11.076.493c-2.507.066-4.861.799-4.448 5.552 0 0 .913 8.403 1.384 19.455.412 9.528.021 11.575.021 11.575.051 2.003.862 5.29 5.788 5.167l8.766-.218c2.506-.065 4.513-1.749 4.462-3.752l-1.427-32.576c-.051-3.635-.514-5.769-3.477-5.696h.007z" fill="#321D15"/><path d="M291.9 40.062c-5.679 0-10.567 5.526-12.165 5.526-.312-1.852-.639-2.941-1.292-3.566-.429-.944-1.184-1.466-2.491-1.466l-10.059.225c-2.273 0-4.43.682-4.154 5.497 0 0 .312 4.182.566 10.521.509 8.162-.218 31.1-.218 31.1 0 2.027-.341 6.064 4.133 6.064h7.952c.697 0 1.344-.167 1.925-.443 2.491-.617 3.377-2.541 3.377-8.517V72.258c0-1.91-.087-3.827-.087-5.846 0-6.157 1.242-11.153 7.19-11.153 4.437 0 5.062 3.928 5.062 8.285 0 0-.247 18.778-.247 21.109 0 4.139.508 9.273 4.684 9.273 8.519 0 12.426-1.787 12.426-10.036V69.92c0-14.552-1.242-29.852-16.602-29.852v-.007zM36.654 13.13c-1.438.015-2.868.06-4.298.103-4.918.139-9.69 1.153-14.55 1.32-4.173.147-5.64 3.445-5.34 6.832 0 0 1.802 19.74 3.742 35.804 1.941 16.063 2.518 41.248 2.518 41.248.299 3.386 2.83 5.955 5.618 5.707l9.763-.868c2.488-.219 4.37-2.62 4.531-5.547.124-1.102.11-2.357-.022-3.795-.175-1.926-.467-3.831-.73-5.736l-.59-6.641c-.059-1.956-.008-4.05.43-4.853 1.62-2.664 35.316-3.496 32.259-36.819-.76-8.24-4.896-15.83-11.573-20.74-3.196-2.35-6.866-4.044-10.718-5.007-3.605-.905-7.326-1.058-11.04-1.022v.015zm388.72 23.58c-9.958-2.143-22.57-2.129-25.96 12.54-.898 3.87-.795 7.407 3.316 7.32 3.339-.074 7.825-1 7.825-1 4.266-1.035 4.42-8.048 6.56-7.946 4.619-.007 4.14 9.915 3.692 10.126-.897.32-17.702-2.209-24.96 7.8-1.89 2.61-3.28 8.304-3.273 11.716.022 10.024 3.994 18.233 16.775 18.153 9.472-.058 13.223-5.322 14.047-5.526.61-.153-.567 4.25 3.603 3.937h.669c8.362-.022 11.708-.102 11.693-9.055-.014-5.97-.331-18.102-.978-24.036-1.419-13.013-5.655-22.454-12.994-24.036l-.015.007zm52.466 4.646c-6.27-.102-10.504 3.724-15.924 6.635 0 0 1.26-8.38-3.362-7.91l-10.144.058c-2.293-.036-4.476.616-4.285 5.476 0 0 .498 8.6.498 19.896v.712a206.06 206.06 0 00-.198 8.855c-.256 6.774-.652 12.565-.652 12.565-.036 2.046-.447 6.114 4.065 6.187l8.021.132c1.311.022 2.476-.513 3.252-1.349 1.362-.975 2.249-2.602 2.293-5.087l.153-9.325c.03-1.928-.022-3.863.008-5.791.175-10.403 8.613-17.228 16.758-17.096.806.015 3.458.836 3.912-2.88.505-4.15.798-10.982-4.395-11.07v-.008zm47.322-.416c-2.474-.327-9.638-.74-10.212-1.721-.236-.4.383-4.01.795-7.019.235-1.743.567-3.48.802-5.223.214-1.584.862.74.538-.334-.368-2.274-1.892-4.083-3.939-4.352l-8.601-1.134c-2.614-.341-5.095 1.933-5.522 5.064 0 0-2.018 7.643-2.577 9.176-.331.916-1.745 2.238-3.498 2.005-.648-.087-1.185-.269-1.833-.356-3.696-.486-4.278 2.434-4.764 6.03-1.613 11.886 6.899 3.909 8.225 10.077 0 .03.007.065.014.095-.088.85-.176 1.7-.265 2.535-.714 6.967-.935 11.748-1.112 25.174 1.569 11.682 13.865 12.132 13.865 12.132 12.65.342 13.91 1.046 15.515-10.825.162-1.198.684-4.417-1.333-4.511-2.607-.124-4.838 1.46-7.857 1.344-3.225-.124-3.063-6.328-2.591-9.823.25-1.852.581-3.589.817-5.332.339-2.507 1.001-8.08 3.24-9.343 3.048-1.707 12.134 2.34 13.511-3.328 1.753-7.2 3.616-9.452-3.218-10.352v.021zm57.292-3.368l-9.05-1.793c-2.751-.547-6.102 1.093-7.448 3.645 0 0-7.792 14.87-13.689 27.093-.403.83-.834 1.698-1.281 2.58-.863.146-1.097.219-2.231.131-.673-.05-2.48.153-2.195-5.984.461-9.804 5.048-24.105 5.048-24.105.242-2.791-1.602-5.277-4.097-5.525l-8.223-.816c-2.495-.248-4.741 1.83-4.983 4.621l-3.563 36.401c.885 8.937 6.373 11.633 12.46 9.44a543.227 543.227 0 01-8.392 13.994c-1.346 2.551-.197 5.081 2.553 5.627l9.621 1.903c2.751.546 6.102-1.094 7.448-3.645l30.575-57.947c1.347-2.551.198-5.08-2.553-5.627v.007zM255.651 23.408c.707-1.497-.412-3.305-2.026-3.276l-8.678.18a2.132 2.132 0 01-1.591-.68l-6.254-6.567c-1.164-1.222-3.109-.73-3.529.897l-2.217 8.723a2.065 2.065 0 01-1.053 1.352l-7.669 3.986c-1.429.744-1.517 2.856-.155 3.826l7.308 5.214c.494.355.84.904.943 1.52l1.51 9.025c.28 1.686 2.173 2.496 3.433 1.469l6.733-5.504a1.992 1.992 0 011.635-.42l8.604 1.599c1.606.296 2.859-1.317 2.277-2.922l-3.146-8.614a2.296 2.296 0 01.074-1.78l3.808-8.042-.007.014zm-96.483.815c-12.182-.854-15.466 4.449-15.466 4.449-.206-1.087 1.385-6.652-5.058-6.776l-8.657-.044c-2.631-.015-4.793 2.575-4.808 5.747 0 0-.044 18.511.359 33.609.403 15.097-1.261 38.567-1.261 38.567-.014 3.173 2.119 5.784 4.75 5.799l9.199.043c2.47.015 4.501-2.275 4.757-5.185.711-1.714.777-3.83.785-5.857l.777-18.824c6.362 2.18 30.03 1.035 33.16-20.276 2.141-14.558-.044-29.976-18.537-31.267v.015zm53.157 11.937c-10.424-1.587-13.628 2.75-13.628 2.75-.102-.953 1.664-5.64-3.869-6.2l-7.445-.648c-2.263-.196-4.307 1.885-4.548 4.621 0 0-1.35 15.959-2.073 29.007-.722 13.047-3.825 33.169-3.825 33.169-.241 2.736 1.416 5.137 3.679 5.334l7.913.684c2.124.182 4.036-1.645 4.46-4.134.737-1.433.941-3.245 1.087-4.992l2-16.177c5.322 2.329 25.774 3.006 29.979-15.158 2.869-12.407 2.088-25.855-13.738-28.264l.008.007zm145.656-23.177c-1.423.197-2.839.423-4.248.642-4.862.766-9.475 2.37-14.264 3.159-4.124.678-5.161 4.136-4.431 7.455 0 0 4.3 19.347 8.263 35.024 3.964 15.677 7.738 40.583 7.738 40.583.73 3.319 3.562 5.544 6.3 4.946l9.577-2.101c2.445-.533 4-3.152 3.789-6.07-.022-1.109-.19-2.349-.504-3.757-.423-1.89-.956-3.735-1.453-5.595l-1.43-6.507c-.307-1.933-.526-4.02-.19-4.866 1.27-2.845 34.601-7.952 27.337-40.605-1.795-8.068-6.869-15.071-14.117-19.098-3.475-1.926-7.329-3.137-11.271-3.604-3.694-.438-7.409-.117-11.089.387l-.007.007z" fill="#321D15"/><path d="M18.944 59.634c-1.947-16.114-3.756-35.917-3.756-35.917-.3-3.397 1.164-6.706 5.359-6.852 4.868-.169 9.655-1.186 14.596-1.325 1.428-.044 2.87-.088 4.312-.103 3.726-.037 7.46.117 11.075 1.025 3.858.966 7.54 2.665 10.754 5.022.044.03.08.066.124.095a29.176 29.176 0 00-2.847-2.416c-3.207-2.357-6.889-4.056-10.754-5.022-3.616-.908-7.35-1.061-11.075-1.025-1.442.015-2.877.059-4.312.103-4.934.139-9.721 1.156-14.596 1.325-4.188.146-5.659 3.455-5.359 6.852 0 0 1.808 19.804 3.756 35.917 1.947 16.114 2.525 41.379 2.525 41.379.234 2.613 1.786 4.737 3.77 5.469a7.166 7.166 0 01-1.04-3.148s-.578-25.273-2.525-41.379h-.007zm82.343 19.639c6.182-.977 6.715-8.398 5.857-14.026-.714-4.651-1.897-9.148-5.287-10.617 1.428 2.116 2.12 5.165 2.604 8.288.858 5.628.332 13.041-5.857 14.026-1.717.272-3.13.088-4.3-.448 1.48 2.109 3.658 3.299 6.983 2.777z" fill="#4A312D"/><path d="M74.867 71.09c-2.66-16.995 5.952-29.901 19.974-32.07 6.379-.987 12.648.62 17.74 4.345-5.489-5.353-12.904-7.83-20.481-6.66-14.022 2.168-22.642 15.074-19.974 32.07 1.278 8.173 5.467 14.6 10.964 18.633-4.13-4.003-7.172-9.561-8.23-16.317h.007zm233.692-40.609c1.657-5.622 5.031-6.294 9.742-6.294.966 0 1.858.059 2.63.229-.564-2.12-2.682-2.564-5.395-2.564-4.718 0-8.084.672-9.741 6.294-1.412 4.78-3.619 16.535 1.701 17.015-1.456-3.783.022-11.134 1.063-14.673v-.007zm-70.426 49.252c-.486-11.145-1.405-19.606-1.405-19.606-.427-4.79 1.972-5.528 4.517-5.594l11.249-.497c.162 0 .309 0 .449.007-.412-1.535-1.295-2.37-3.193-2.325l-11.249.497c-2.546.066-4.937.804-4.517 5.594 0 0 .927 8.468 1.405 19.605.419 9.602.022 11.664.022 11.664.037 1.602.574 4.015 3.303 4.885-.419-.87-.544-1.806-.559-2.567 0 0 .397-2.062-.022-11.663zm56.394-14.005c0-3.854-.477-7.379-3.57-8.185.723 1.546.882 3.65.882 5.87 0 0-.246 18.95-.246 21.302 0 3.847.441 8.53 3.75 9.248-.896-1.883-1.055-4.565-1.055-6.932s.246-21.303.246-21.303h-.007zm.325-23.308c3.525 0 6.314.796 8.533 2.187-2.508-2.827-6.114-4.545-11.293-4.545-4.37 0-8.272 3.206-10.639 4.79.445.678.72 1.69.972 3.222 1.632 0 6.618-5.661 12.427-5.661v.007zm-30.014 47.892s.744-22.885.221-31.027c-.257-6.324-.574-10.497-.574-10.497-.28-4.803 1.907-5.484 4.211-5.484l10.196-.224c.133 0 .25.007.368.021-.169-.347-.353-.63-.589-.847-.434-.942-1.2-1.464-2.525-1.464l-10.196.225c-2.304 0-4.491.68-4.211 5.484 0 0 .317 4.172.574 10.497.516 8.142-.221 31.027-.221 31.027 0 1.84-.272 5.332 3.092 5.94-.427-1.231-.353-2.673-.353-3.651h.007zM402.332 52.51c3.379-14.872 15.916-14.887 25.82-12.714 1.126.251 2.186.688 3.167 1.301-1.675-1.885-3.636-3.149-5.896-3.644-9.903-2.173-22.447-2.158-25.819 12.713-.827 3.637-.79 6.978 2.465 7.377-.359-1.36-.168-3.156.263-5.04v.007zm-3.706 16.356c7.302-9.99 24.206-7.465 25.109-7.786.443-.21.909-9.721-3.448-10.092 1.324 2.94.999 7.64.688 7.786-.362.13-3.299-.197-7.161 0a4.13 4.13 0 01-.4.116s-3.669.757-6.858.953c-4.017 1.055-8.004 3.027-10.69 6.71-1.901 2.604-3.299 8.287-3.292 11.693.015 6.701 1.82 12.58 6.866 15.717-2.967-3.325-4.099-8.113-4.106-13.41-.008-3.406 1.391-9.089 3.292-11.694v.007zm48.666 21.37s.404-5.739.666-12.45c0-2.783.067-5.769.202-8.776v-.705c0-11.187-.509-19.716-.509-19.716-.194-4.816 2.034-5.463 4.375-5.426l10.357-.058c.127-.015.254-.015.374-.015-.464-1.395-1.391-2.455-3.163-2.28l-10.357.057c-2.341-.036-4.569.61-4.375 5.427 0 0 .509 8.521.509 19.716v.704a197.846 197.846 0 00-.202 8.776c-.262 6.712-.666 12.45-.666 12.45-.03 1.853-.374 5.377 3.096 6.023-.434-1.257-.329-2.731-.314-3.72l.007-.007zm14.741-37.791c5.524-2.794 12.974-8.072 19.357-7.966.403 0 .769.063 1.105.14-.694-1.386-1.896-2.336-3.89-2.37-5.248-.085-12.235 3.982-16.505 6.417.224 1.893-.075 3.779-.075 3.779h.008zm27.028-7.037c.481-3.6 1.057-6.525 4.717-6.037.641.087 1.173.269 1.815.356 1.735.233 3.134.364 3.463-.553.546-1.534 2.551-10.641 2.551-10.641.423-3.135 2.88-5.419 5.468-5.07l8.514 1.135c.183.022.358.073.533.124-.7-1.31-1.845-2.24-3.245-2.43l-8.514-1.135c-2.588-.341-5.045 1.935-5.468 5.07 0 0-1.997 7.652-2.551 9.187-.328.916-1.728 2.24-3.463 2.007-.642-.087-1.174-.269-1.815-.356-3.66-.487-4.236 2.437-4.717 6.037-.773 5.746.802 6.852 2.77 7.157-.299-1.062-.364-2.596-.058-4.858v.007zm8.17 13.092l.259-2.544a.441.441 0 00-.014-.094c-.411-1.946-1.515-2.485-2.784-2.69.036.125.072.241.101.38a.4.4 0 00.015.095l-.26 2.543c-.7 6.988-.916 11.782-1.089 25.248.649 4.933 3.159 7.863 5.848 9.611-1.528-1.741-2.74-4.095-3.158-7.3.166-13.474.382-18.269 1.089-25.25h-.007zm19.674-16.974c.578 1.014 7.798 1.442 10.291 1.78.817.112 1.499.24 2.085.398-.23-1.54-1.498-2.32-4.845-2.771-1.573-.21-5.023-.466-7.509-.871-.082.78-.104 1.329-.022 1.472v-.008zm20.717 57.896c2.344-4.54 4.349-7.573 7.009-11.931-.194-.19-1.481-4.263-1.279-4.454-1.179 1.113-1.977 3.201-2.818 4.637a1033.02 1033.02 0 01-2.768 4.695 921.656 921.656 0 01-2.818 4.731c-1.287 2.498-.244 4.974 2.315 5.604-.324-.967-.23-2.124.367-3.282h-.008zm-.527-59.718c.244-2.781 2.514-4.851 5.036-4.604l8.311.813c.267.03.518.08.77.153-.725-1.344-2.004-2.302-3.52-2.455l-8.312-.813c-2.522-.247-4.792 1.823-5.036 4.604l-3.602 36.267c.503 5.01 2.478 8.054 5.206 9.368-1.264-1.648-2.144-3.972-2.455-7.066l3.602-36.267zm14.675 31.644c1.124.08 1.357.015 2.225-.13.445-.877.875-1.74 1.277-2.565 5.871-12.153 13.647-26.937 13.647-26.937 1.342-2.536 4.683-4.166 7.425-3.623l9.031 1.783c.065.014.131.036.197.05-.402-1.159-1.416-2.05-2.918-2.347l-9.03-1.783c-2.743-.544-6.084 1.087-7.426 3.623 0 0-7.768 14.784-13.647 26.936-.401.826-.832 1.689-1.277 2.566-.649.108-.94.174-1.524.166.445 2.312 1.524 2.225 2.02 2.261zM232.306 40.061l-2.025-1.456c.11.217.198.442.234.688l1.499 9.042c.226 1.37 1.506 2.16 2.654 1.862l-1.433-8.614a2.34 2.34 0 00-.936-1.522h.007zM247.43 22.58l8.437-.148c0-1.07-.996-2.062-2.311-2.037l-8.953.16c-.144 0-.289-.012-.433-.031l1.619 1.454a2.385 2.385 0 001.641.602zm-22.13 7.909l7.506-4.025c.512-.27.887-.767 1.031-1.366l2.17-8.811c.289-1.162 1.327-1.739 2.315-1.542l-1.55-1.673c-1.14-1.234-3.043-.737-3.454.906l-2.17 8.81a2.082 2.082 0 01-1.032 1.367l-7.506 4.025c-1.399.753-1.485 2.886-.151 3.865l1.99 1.461c-.519-1.06-.224-2.44.844-3.017h.007zm4.289 6.598l-5.157-3.58c.158.302.389.583.698.797l5.15 3.573a2.249 2.249 0 00-.684-.79h-.007zm-83.7-6.494s3.301-5.072 15.547-4.256c4.664.307 8.297 1.472 11.089 3.258-3.006-3.028-7.449-5.044-13.83-5.47-6.933-.46-11.001.963-13.218 2.289.758 1.618.302 3.586.412 4.179zm-17.63 33.043c-.402-15.14-.358-33.702-.358-33.702.014-3.182 2.169-5.778 4.792-5.763l8.619.044c.767.014 1.417.11 1.973.263-.541-1.36-1.805-2.524-4.697-2.582l-8.62-.044c-2.623-.015-4.777 2.582-4.792 5.763 0 0-.044 18.563.358 33.703.402 15.14-1.257 38.675-1.257 38.675-.014 2.692 1.513 4.974 3.565 5.624a6.655 6.655 0 01-.84-3.305s1.666-23.529 1.257-38.676zm51.421 37.562s3.124-20.13 3.852-33.185c.728-13.054 2.088-29.02 2.088-29.02.243-2.737 2.301-4.82 4.58-4.623l7.499.648c.426.044.801.11 1.147.197-.383-1.187-1.405-2.257-3.889-2.505l-7.499-.648c-2.279-.196-4.338 1.886-4.58 4.623 0 0-1.36 15.966-2.088 29.02s-3.852 33.185-3.852 33.185c-.228 2.562 1.213 4.827 3.264 5.271a5.635 5.635 0 01-.529-2.963h.007zm21.534-59.84s3.204-4.544 13.626-2.882c3.35.534 6.021 1.594 8.131 3.043-2.358-2.707-5.846-4.659-10.846-5.46-5.525-.884-9.021-.023-11.086.984.744 1.647.117 3.706.175 4.308v.008zm144.744 20.383c-3.943-15.734-8.22-35.152-8.22-35.152-.726-3.331.305-6.802 4.408-7.483 4.77-.79 9.352-2.401 14.188-3.17 1.401-.22 2.81-.447 4.226-.645 3.66-.512 7.356-.834 11.03-.388 3.921.469 7.755 1.684 11.211 3.617a28.42 28.42 0 013.195 2.102 28.161 28.161 0 00-5.896-4.415c-3.457-1.933-7.29-3.149-11.211-3.617-3.675-.44-7.371-.117-11.03.388-1.416.197-2.825.425-4.226.644-4.836.769-9.425 2.38-14.189 3.17-4.102.681-5.133 4.152-4.407 7.483 0 0 4.277 19.418 8.22 35.153 3.942 15.734 7.696 40.731 7.696 40.731.494 2.27 1.961 4.027 3.704 4.73a7.262 7.262 0 01-1.002-2.409s-3.754-24.997-7.697-40.731v-.008z" fill="#4A312D"/><path d="M38.93 28.196l5.154 5.224c.347.353.817.544 1.287.515l6.882-.398c1.28-.073 2.219 1.384 1.699 2.634l-2.79 6.725a1.972 1.972 0 000 1.464l2.739 6.997c.513 1.302-.441 2.663-1.72 2.465l-6.875-1.067a1.534 1.534 0 00-1.287.39l-5.183 4.716c-.968.883-2.494.265-2.761-1.111l-1.46-7.38a1.949 1.949 0 00-.788-1.22l-5.95-4.077c-1.106-.758-1.106-2.501.008-3.156l5.97-3.495c.405-.235.695-.655.796-1.148l1.51-7.24c.282-1.346 1.815-1.81 2.77-.838z" fill="#EF6AA0"/><path d="M152.268 36.322l4.048 5.381a1.55 1.55 0 001.108.628l6.329.526c1.18.095 1.854 1.533 1.224 2.6l-3.382 5.717a1.777 1.777 0 00-.188 1.321l1.629 6.674c.304 1.242-.731 2.352-1.876 2.008l-6.14-1.847a1.427 1.427 0 00-1.224.19l-5.315 3.6c-.992.671-2.31-.08-2.383-1.358l-.412-6.857a1.768 1.768 0 00-.565-1.205l-4.917-4.447c-.92-.832-.695-2.402.406-2.847l5.887-2.395a1.56 1.56 0 00.869-.935l2.281-6.345c.427-1.183 1.875-1.41 2.636-.402l-.015-.007z" fill="#A77FF4"/><path d="M363.434 28.21l5.427 5.344c.372.361.862.556 1.351.527l7.253-.404c1.351-.072 2.345 1.415 1.797 2.694l-2.944 6.883a1.933 1.933 0 000 1.495l2.893 7.164c.54 1.336-.46 2.73-1.812 2.528l-7.245-1.09a1.69 1.69 0 00-1.359.397l-5.464 4.831c-1.015.903-2.629.275-2.914-1.134l-1.541-7.561a1.972 1.972 0 00-.833-1.25l-6.267-4.174c-1.168-.78-1.161-2.564.015-3.229l6.296-3.582a1.77 1.77 0 00.84-1.17l1.592-7.41c.3-1.38 1.907-1.856 2.922-.86h-.007z" fill="#F96846"/><path d="M415.499 67.335l.598 5.09c.044.347.219.65.488.838l4.001 2.806c.743.52.641 1.72-.197 2.176l-4.474 2.43a1.38 1.38 0 00-.642.794l-1.508 4.997c-.284.932-1.399 1.258-2.026.585l-3.367-3.593a1.12 1.12 0 00-.882-.355l-4.933.29c-.919.05-1.502-.948-1.057-1.815l2.39-4.649c.16-.318.197-.68.088-1.012l-1.538-4.823c-.284-.896.474-1.843 1.377-1.706l4.847.723c.327.05.67-.05.94-.275l3.979-3.268c.743-.607 1.792-.188 1.909.76l.007.007z" fill="#F4A031"/><path d="M210.984 46.918l1.354 5.659c.094.383.335.708.662.881l4.879 2.638c.91.492.946 1.857.065 2.479l-4.718 3.317a1.49 1.49 0 00-.611.975l-1.034 5.833c-.197 1.084-1.413 1.597-2.207.924l-4.266-3.606a1.27 1.27 0 00-1.042-.281l-5.519.968c-1.027.18-1.82-.874-1.434-1.908l2.075-5.55a1.531 1.531 0 00-.029-1.15l-2.374-5.231c-.444-.976.284-2.14 1.325-2.103l5.549.18c.378.015.75-.144 1.026-.426l4.056-4.199c.757-.78 1.995-.448 2.25.607l-.007-.007z" fill="#63B7E0"/></svg>