<svg width="474" height="206" fill="none" xmlns="http://www.w3.org/2000/svg"><path d="M290.579 30.046c-3.439-2.834-8.764-11.848-8.764-11.848-5.556 5.913-13.67 6.728-19.132 8.394-9.364 2.862-14.508 11.898-15.534 13.412-.145.217 6.351 2.596 10.953 4.695.809.367.99-2.221 3.107-4.096 2.298-2.041 10.433-4.493 14.602-5.43 4.169-.938 7.42 2.855 14.212 7.413 6.358 4.269 8.879 9.922 8.879 9.922 3.223.83 5.347.65 5.354.512.087-1.32.752-5.415-1.69-9.259-2.023-3.187-4.885-7.867-11.994-13.715h.007zm28.138 47.96c.548-1.296 7.429-4.345 7.429-4.345-.8.342-6.116-10.349-6.758-11.404-1.551-2.54-3.7-3.537-6.405-4.446a52.83 52.83 0 00-6.499-1.732c-1.882-.379-3.858-.211-5.705-.757.7.203 1.364 4.126 1.486 4.708.844 4.047-1.212 7.707-.851 11.659.173 1.885 1.212 10.829 2.25 12.059 1.486 1.76 4.854 3.602 5.547 3.602 2.495 0 6.744-2.86 9.506-9.351v.007zm-10.301 11.918c-.246-.371-4.412-2.66-6.012-3.7-1.601-1.038-2.646-6.881-2.646-6.881-1.146 6.94-12.795 13.974-19.772 15.355-2.148.429-6.805-.603-6.805-.603s.886 4.048.627 5.828c-.49 3.321-2.235 4.433-1.997 4.746 3.842 4.934 12.305-.56 13.091-.713.778-.152 6.703 3.263 10.084 3.743 3.388.472 4.664-4.36 4.664-4.36s3.914.537 6.408-1.294c1.334-.981 3.54-10.312 2.358-12.121zm-72.473-42.405c-3.975 3.322-8.618 6.028-13.714 7.087-1.323.276-8.331.936-8.418 2.75-.223 4.817 7.555 25.668 18.071 27.082.015 0 5.686-.348 8.295-4.89 2.61-4.54 2.725-8.038 1.129-11.273-1.215-2.467-.216-6.726.834-9.526 1.049-2.8 5.606-11.564 6.951-12.943 1.107-1.131-2.042-2.198-3.968-3.264-2.926-1.625-7.224 3.337-9.18 4.97v.007zM239.7 85.34c-2.643 1.958-7.26 1.385-7.26 1.385-2.249 3.09-2.228 6.166-1.594 8.096.837 2.546 3.597 2.096 6.538 5.985 3.531 4.657 4.107 12.274 4.107 12.274 22.367 2.778 26.706-7.385 28.905-10.961 2.133-3.468-1.245-14.124-4.521-12.362-5.745 3.09-8.672.994-11.519-1.501-2.781-2.438-4.077-4.868-5.854-6.239-1.143-.885-4.885-1.218-4.885-1.218s-2.163 3.235-3.925 4.548l.008-.007z" fill="#6670ED"/><path d="M268.591 40.763s-.583 3.622-.386 6.088c.189 2.46 1.209 4.103 1.209 4.103s7.492-8.828-.823-10.19zm2.481 12.409s2.007 2.713 3.24 2.878c0 0 8.145-9.161 1.19-12.375 0 0 .445 5.146-4.438 9.49l.008.008z" fill="#6670ED"/><path d="M259.478 58.912c-.378 5.783 9.139 10.24 9.139 10.24l3.896-11.157c-9.818-4.588-6.372-17.232-6.372-17.232s-2.261.525-3.481 1.552c-1.498 1.26-1.977 2.716-1.791 3.335.185.627 1.648 2.717.742 5.47a90.015 90.015 0 00-2.133 7.792zm20.325-19.588c-2.171-1.158-7.963-1.18-3.897 1.5 0 0 5.194 3.154 5.602 5.623.408 2.47-1.311 6.33-3.628 9.884-2.135 3.278-5.494 9.374-6.091 15.733 0 0 5.129-4.8 11.249-7.765 6.601-3.197 16.852-9.024 10.856-14.567-5.996-5.55-11.927-9.25-14.098-10.408h.007z" fill="#6670ED"/><path d="M259.156 48.11c-.094-.452-4.437-2.858-6.09-2.107-3.843 1.757-8.447 15.16-8.447 15.16-1.377 7.364 1.53 7.182 1.407 10.915-.065 1.947-1.08 5.367-1.08 5.367s2.334.743 4.865 1.582c2.537.831 4.654 5.235 8.511 8.08 3.857 2.843 8.548-1.46 8.548-1.46s.609-2.887 2.784-6.919c2.176-4.04-1.522-6.694-1.522-6.694-10.665-5.374-11.129-10.85-11.376-12.57-.224-1.605 3.074-7.985 2.393-11.361l.007.007zm14.437 25.61c-1.17 1.423 0 2.55-1.25 5.495-1.249 2.947-3.865 6.347-3.4 8.095.465 1.747 3.88 5.336 7.948 5.127 4.068-.21 17.79-8.716 18.727-10.355.937-1.64 2.855-5.033 2.928-10.03.072-4.996 2.281-8.506 1.22-12.542-1.06-4.037-1.714-4.188-1.714-4.188s-3.523 5.979-7.206 7.755c-4.316 2.087-13.897 6.57-17.253 10.643zm-55.42 39.322c2.622.508 4.135.463 6.398.508 4.503.082 9.343-.889 12.282-4.671 1.895-2.437.499-6.264-2.263-7.236-3.335-1.173-6.67.06-9.623 1.742-.668.381-1.315.785-1.939 1.181-3.496 2.257-6.736 4.903-9.946 7.564 1.072-.045 4.136.733 5.083.912h.008zm50.893 6.224c3.47-1.853 5.298-8.87.694-11.535 0 0-3.166 4.066-7.855 5.703 0 0-1.778 2.801-.566 6.565 1.119 3.455.354 5.143-.277 6.658 0 0 4.533-5.53 8.004-7.383v-.008zm15.767-11.534c-.993-.03-5.796 2.037-5.796 2.037 5.177 21.16 28.266 10.628 28.266 10.628s-9.491-8.999-13.036-9.258c-4.113-.297-8.162-3.363-9.427-3.407h-.007z" fill="#6670ED"/><path d="M379.417 125.929s2.005-18.166 16.307-18.166c0 0-16.307-1.893-16.307-19.685 0 17.792-16.308 19.685-16.308 19.685 14.295 0 16.308 18.166 16.308 18.166z" fill="#2C2A8A"/><path d="M467.197 168.673c-1.862 1.165-7.731 4.403-9.172 1.223-.348-.772-.594-2.613-.812-5.931l-2.652-36.316-7.629 4.731c-3.557-2.169-5.846-3.726-9.476-3.726-3.978 0-8.484 1.681-13.512 4.999 6.122-10.45 10.324-22.771 8.904-36.01.551-1.004 2.355-3.252 7.774-4.526 0 0-6.723.437-8.723-1.12a49.356 49.356 0 00-1.587-5.503c-.145-.407-.304-.815-.456-1.215 9.998-5.414-3.333-9.22-3.333-9.22 3.775 2.43 3.492 5.974 2.891 8.063-1.565-3.872-3.586-7.642-6.021-11.31 1.978.954 4.789 1.121 8.172-1.92 0 0 3.797-5.117 7.659-8.26 2.412-1.966 5.68-3.385 5.68-3.385s-9.383-1.084-12.512-6.885c0 0-3.84 7.54-4.942 10.029-.949 2.14-3.05 6.732-6.064 7.532-.282-.385-.587-.771-.877-1.157.508-.073 1.015-.393 1.544-.946 1.782-1.87 4.238-7.38 6.187-11.142 2.065-3.974 6.673-9.992.565-17.124 0 0-2.26 9.599-5.267 12.233-3.746 3.283-8.332 7.424-7.078 12.074a99.587 99.587 0 00-1.899-2.06c.305-.69 1.319-3.085 1.587-4.599.384-2.19 3.688-7.809-10.976-11.87 0 0 3.876 5.939 3.84 9.912 0 .452.05.866.13 1.26-4.651-4.214-9.882-8.217-15.628-11.994-.268-1.296-.304-4.061 2.355-8.398 0 0-4.557 5.261-7.042 5.436-17.403-10.582-38.877-19.177-62.504-25.166a26.386 26.386 0 001.79-.815 51.751 51.751 0 001.898-1.02c3.5-1.986 6.84-4.33 10.245-6.76-1.145.11-4.369-.335-5.354-.43-2.71-.247-4.246-.109-6.521 0-4.448.226-9.063 1.303-11.686 4.44a2.912 2.912 0 00-.674 2.169 315.92 315.92 0 00-30.466-5.03c-.731-.72-2.492-3.092-1.999-8.936 0 0-2.094 8.282-4.543 8.246a323.932 323.932 0 00-27.452-1.434c-37.406-.342-67.183 4.665-88.629 10.268.29-.953.268-1.993-.181-2.896-1.326-2.663-4.043-3.9-6.788-4.643a30.783 30.783 0 00-1.848-.437c-3.405-.72-6.876-1.055-10.339-1.368.674.611 2.065 2.868 2.529 3.537 1.282 1.848 2.217 2.715 3.55 4.075 1.565 1.594 3.42 3.02 5.477 3.836-21.155 6.2-32.24 12.4-32.24 12.4-4.101 1.93-8.006 4.084-11.52 6.201a93.323 93.323 0 00-12.498-.844c-21.083 0-39.304 6.812-54.548 20.32a91.084 91.084 0 00-4.137 3.907l-.022.015c-10.81 10.88-15.12 8.747-15.12 8.747-4.644-.815-5.695-6.964-1.42-8.856 5.151-2.285 6.955 4.832 6.955 4.832.16-6.957-5.934-6.688-7.542-5.982-6.63 2.889-4.47 15.225 7.745 10.989 0 0 .55-.19 1.47-.648C19.416 86.181 12.504 90.468 4.918 85.92.483 83.257 1.794 75.63 6.38 74.181c7.52-2.38 6.927 6.52 6.927 6.52 3.354-8.281-4.63-8.973-6.63-8.507-9.092 2.118-9.86 17.852 3.732 18.02 5.26.065 10.766-3.785 15.294-8.137a53.135 53.135 0 00-2.036 5.37c-1.224 3.865-2.166 8.26-2.485 12.722a4.08 4.08 0 00-1.68-.058c-3.232.597-5.384 3.122-7.014 5.829-.37.611-.71 1.23-1.036 1.841-1.811 3.421-3.246 7.023-4.644 10.633.855-.531 3.68-1.325 4.528-1.616 2.355-.8 3.565-1.535 5.412-2.54 1.826-.989 3.594-2.234 5.006-3.762.826 4.075 2.45 7.874 5.202 10.989 3.811 4.308 9.557 6.623 15.288 6.899 10.244.488 20.496-5.676 24.908-14.977-10.288 6.492-26.749 7.656-32.907-4.177-1.623-3.108-2.34-7.089-2.521-11.062 5.006 7.881 15.019 1.186 13.338-5.466-.384-1.506-3.123-6.39-7.97-2.147 0 0 5.89-3.02 6.478 3.079.347 3.624-4.282 7.779-7.796 5.356-2.717-1.878-3.956-4.352-3.79-8.093.044-.385.08-.793.138-1.164 1.76-12.212 9.332-23.638 18.664-31.425 12.157-10.145 25.836-15.254 40.949-15.254 3.441 0 7.013.24 10.563.786-4.354 3.064-7.02 5.262-7.02 5.262-8.224 7.001-12.839 14.337-15.606 21.2-2.768 6.862-4.065 18.914-3.739 30.1.066 2.241.355 7.809 1.283 16.702.768 7.358 1.159 15.239.319 22.619-.884.764-3.348 2.234-8.818 1.601 0 0 6.622 1.914 7.868 4.09-.804 3.661-1.992 7.117-3.71 10.225-5.954 10.764-19.785 17.779-31.472 17.779-3.427 0-7.158-.437-10.498-1.324-.572-.968-1.616-3.668.094-9.061 0 0-3.144 6.157-5.513 6.965-.037-.022-.08-.037-.116-.059-11.65-6.52-14.077-17.59-14.077-17.59.934 8.683 4.303 15.4 9.998 20.276 6.18 5.291 12.57 7.248 20.51 7.248 18.077 0 33.024-2.954 42.21-18.39 8.398-14.111 8.557-31.316 6.934-47.552 5 .488 17.714 1.077 20.236 7.671 1.499 3.922 3.34 10.712 5.296 22.262.333 1.95.536 3.922.826 5.88.203 1.383.42 2.766.652 4.148-.196.568-1.485 3.464-7.861 5.102 0 0 8.093-.691 9.179 1.463 1.435 5.873 3.616 11.215 7.601 14.817 7.592 6.877 21.162 4.854 28.784-1.383 3.789-3.1 6.615-6.877 9.419-10.873.413-.582 2.782-4.388 4.89-7.823-.282 1.929-.434 4.032-.434 6.346 0 5.255 1.688 9.577 5.071 12.976.116.116.239.24.362.357 5.731 5.422 14.563 5.545 22.598 4.046 3.057-.56 5.999-1.674 8.694-3.224 6.68-3.843 11.744-10.181 14.367-17.423 2.673-7.357 2.108-15.668-2.666-22.036-3.84-5.124-10.346-7.583-16.526-7.583s-12.281 2.11-18.2 5.691c-5.195 3.144-11.795 10.239-20.04 21.956-5.644 7.358-10.991 13.427-15.946 14.432-3.63.735-7.89.385-10.259-2.817-2.978-4.032-4.463-12.212-7.514-24.547l-1.724-6.739c.261-.772 1.587-3.537 7.542-5.415 0 0-7.549 1.07-9.121-.757l-.565-2.19c-.732-2.766-1.696-7.423-4.42-10.902-2.681-3.428-5.6-4.73-9.933-5.036 4.405.313 10.281-2.918 13.983-4.985 4.217-2.351 8.129-5.313 11.65-8.617 6.955-6.535 11.868-15.749 12.165-25.428.311-9.861-4.5-18.71-11.571-25.217-.275-1.157-.442-4.017 2.58-8.595 0 0-4.464 4.81-6.999 5.182-4.224-2.642-9.701-4.614-15.78-5.902a400.989 400.989 0 017.332-4.774c4.615-2.737 23.148-11.71 53.172-17.838-10.194 4.374-18.954 12.656-23.706 22.532-6.209 12.917-6.137 29.605-3.398 43.352 1.797 9.054 5.093 17.074 10.925 24.097 2.522 3.726 5.434 8.631 5.275 11.287-.304 5.182-5.992 8.61-10.027 5.982-6.615-4.301.601-9.519.601-9.519-8.484 2.678-4.659 9.498-3.028 10.749 6.897 5.291 18.866-2.685 13.62-12.386 8.484 5.895 20.229 6.95 29.481 2.212 11.925-6.113 18.656-21.25 12.461-33.702-3.919-7.882-10.701-10.284-17.113-9.6.37-.61.558-1.331.464-2.052-.326-2.372-2.079-4.017-3.978-5.29a22.318 22.318 0 00-1.296-.816c-2.413-1.426-4.963-2.583-7.521-3.719.355.64.833 2.722 1.022 3.348.5 1.74.992 2.642 1.659 4.017 1.108 2.293 2.738 4.483 5.064 5.524-5.245 1.783-9.621 5.444-10.983 9.425-2.87 8.347 2.021 13.369 5.571 13.914 4.224.655 7.629-1.63 8.607-8.966 0 0-6.006 8.319-9.578 4.243-2.594-2.962-1.514-8.791 2.434-12.226 3.174-2.766 12.433-5.247 17.208-1.303 4.542 3.748 7.071 9.912 5.144 17.16-2.225 8.363-8.709 18.391-21.047 17.409-13.491-1.07-20.236-8.042-25.865-19.788-5.782-12.066-6.782-30.733-3.369-43.753.072-.291.166-.568.253-.859 2.456 9.432 14.251 5.706 14.44-1.23.043-1.557-1.275-6.986-7.093-4.214 0 0 6.499-1.31 5.405 4.716-.652 3.581-6.238 6.317-8.963 3.035-2.144-2.583-2.651-5.356-1.391-8.995a48.215 48.215 0 014.239-7.678c.398-.575.819-1.164 1.268-1.768a47.267 47.267 0 012.818-3.443c6.542-7.16 15.149-11.687 24.365-14.162 9.513-1.455 19.931-2.562 31.212-3.122-.978.75-1.818 1.732-2.543 2.766-.319.45-.616.91-.898 1.36-1.594 2.54-2.898 5.24-4.181 7.948.688-.364 2.913-.815 3.586-.99 1.862-.488 2.833-.983 4.319-1.66 2.956-1.338 5.817-3.47 6.578-6.819.246-1.07-.145-2.103-.847-2.852 9.57-.299 19.692-.211 30.378.415 36.421 2.132 68.836 9.78 95.201 20.646.485.96 1.369 3.748-.834 9.075 0 0 4.644-7.46 6.934-6.44l-.428-.204c33.987 15.108 56.932 35.667 63.953 56.263 2.325 6.82 2.507 13.973 1.326 21.04-.862.705-3.391 2.132-9.042 1.164 0 0 6.644 2.307 7.788 4.563-6.839 25.508-29.19 48.549-30.291 49.67-3.116 3.049-5.63 4.708-7.412 4.708-1.536 0-2.492-.662-2.876-1.994-.283-.982-.464-2.729-.537-5.232v-6.507h-.043v-29.765l-10.462 5.567c-1.884 8.173-5.448 17.765-11.52 26.542-5.89 8.34-9.107 11.273-12.113 11.273-1.464 0-2.37-.786-2.717-2.365-.348-1.58-1.435-7.023-1.869-12.35l-.392-3.807c1.058 2.184 2.398 4.025 4.115 5.146 8.6 5.618 14.643-5.641 9.825-10.8-1.058-1.136-5.811-4.076-8.006 1.994 0 0 3.702-5.509 7.151-.451 2.05 3.005 0 8.893-4.239 8.478-5.817-.575-8.498-5.022-10.106-16.542l-1.015-9.818c10.948-17.087 18.722-30.376 23.322-39.874 4.601-9.49 6.905-17.037 6.905-22.64 0-4.2-1.029-7.562-3.087-10.087-2.057-2.518-5.1-4.214-8.73-4.214-7.832 0-15.476 3.967-21.482 12.612-5.861 8.435-8.875 18.617-8.875 29.504l1.485 38.375c0 1.12-.681 3.413-2.036 6.884-2.369 6.012-6.542 13.806-10.106 18.922-2.703 3.326-5.623 6.106-8.796 7.991-4.014 2.38-7.651 3.115-10.933 3.115-6.825 0-12.186-2.438-15.461-11.215-.007 0-.014.007-.021.014 0-.211-.522-1.004-.964-2.896a27.579 27.579 0 01-.71-6.346c0-4.621 1.369-8.253 3.811-11.542 2.441-3.29 5.441-4.935 8.991-4.935 1.949 0 4.043.815 5.195 2.147 3.129 3.624 1.586 8.901-.921 12.394-3.571 4.992-9.845 8.449-15.25 11.106 22.083-4.891 26.314-11.463 26.176-20.894-.036-2.664-1.318-6.339-3.166-8.02-1.847-1.681-4.202-2.518-7.057-2.518-5.738 0-11.027 2.278-15.91 6.302-4.796 3.952-10.795 11.63-19.591 24.111-3.369 4.599-6.158 8.034-8.686 10.596.166-.429.318-.873.434-1.339.79-3.13.355-6.557-1.384-9.301-1.717-2.714-4.252-4.854-6.709-6.834-3.39-2.736-7.556-5.48-8.085-10.203-.616-5.516 7.383-8.114 12.251-8.187.892-.015 1.79.138 2.652.371 2.753.757 5.622 2.569 6.767 5.305 1.275 3.057-.362 6.441-3.137 7.984-1.464.815-2.384 1.303-4.028 1.921 1.977-.291 3.535-.713 5.209-1.368 2.318-.91 4.354-2.416 5.383-4.709 1.123-2.488.5-5.654-.768-7.918-2.29-4.068-6.97-6.739-11.665-6.739-4.694 0-11.041.408-15.098 3.588-3.608 2.824-6.536 6.754-6.579 11.499-.043 4.075 2.195 8.122 7.716 12.19 2.217 1.637 4.622 3.158 6.332 5.371 1.928 2.489 2.21 5.975.725 8.747-2.065 3.858-6.572 4.84-10.607 4.709-1.804-.058-3.623-.247-5.376-.706-2.456-.648-4.861-1.899-6.202-4.148-1.978-3.319-1.144-7.532.949-10.575.558-.807 1.413-2.139 2.333-2.547-1.398.488-1.883.866-2.659 1.39-2.557 1.747-4.006 4.891-4.506 7.605-.362 1.958-.138 4.025.514 5.895 1.833 5.24 7.419 8.042 12.687 8.319.695.036 1.347.058 1.985.072h.275c.565.008 1.116.008 1.645 0 15.482-.029 18.134-.691 30.588-17.91l.022.015a63.6 63.6 0 01.891-1.281l.362-.51a179.777 179.777 0 014.507-5.989c-.283 1.892-.493 3.675-.42 5.356.297 6.732 1.869 11.71 5.252 15.174 3.384 3.464 7.977 5.153 13.766 5.153 8.962 0 14.432-1.856 19.315-4.905 4.558-2.846 8.564-7.438 12.426-13.508 3.434-5.167 6.093-11.95 8.803-16.978l1.782 17.611a131.3 131.3 0 00.398 3.399c.623 4.701 1.283 14.373 7.876 14.373 9.904 0 14.222-4.686 22.684-18.259 3.289-4.905 5.593-10.771 7.477-15.603v37.05c0 5.633-6.644 6.193-6.644 6.193 10.462 0 11.933 16.746 11.933 16.746s1.471-16.746 11.933-16.746c0 0-6.724-3.115-6.724-6.426v-3.122c2.869-.444 6.035-1.892 9.375-4.665 3.63-3.02 7.064-7.605 10.875-12.823l.051.044c2.949-3.996 5.231-7.227 6.035-8.268-.08.219-.239 1.157-.435 5.073-.26 5.465 1.587 11.622 4.76 15.334 3.174 3.711 7.441 5.567 12.817 5.567 3.695 0 6.991-.786 9.882-2.365 2.891-1.579 7.521-4.731 10.614-10.553.073 4.905 1.457 8.486 2.666 10.065 1.377 1.79 2.63 2.853 5.492 2.853 7.6 0 10.788-3.551 18.736-16.018-2.594 1.914-3.977 2.977-6.774 4.73l-.029-.007zm-270.285-34.576c6.071-.728 11.085 3.086 13.744 8.631 3.093 6.456 2.376 13.893-1.109 19.985-2.688 4.701-8.788 7.678-14.649 8.318-3.906.429-7.789-.444-10.701-3.144-3-2.78-4.232-5.64-4.558-9.614-.855-10.268 4.355-22.626 17.273-24.176zM121.585 51.3c6.564 4.861 13.012 12.023 14.048 20.465 1.014 8.289-2.84 16.36-8.158 22.48-8.165 9.395-24.467 16.382-36.805 17.204-.326-2.918-.689-5.8-1.065-8.616-1.406-10.436-2.043-20.4-1.913-24.468.326-10.363 4.065-18.841 11.208-25.428 2.036-2.212 5.405-4.963 9.325-7.845 4.825 1.296 9.426 3.282 13.367 6.2l-.007.008zm217.939 40.813c.217-10.167 3.543-19.788 6.571-24.766 3.036-4.97 7.753-8.013 12.15-8.013 4.811 0 7.463 3.086 7.463 10.931 0 5.117-1.485 11.157-4.449 18.122-2.963 6.972-10.773 20.275-20.112 35.682 0 0-1.84-21.797-1.623-31.964v.008zm103.199 74.319c-2.768 3.187-5.441 4.781-8.977 4.781-4.129 0-7.382-1.383-9.766-4.148-2.376-2.766-3.572-7.896-3.572-12.94 0-5.815 1.681-10.683 5.043-14.606 3.361-3.923 7.143-5.88 11.338-5.88 3.92 0 5.985 1.433 8.781 4.308l1.297 21.12c0 .909-1.384 4.184-4.144 7.365z" fill="url(#paint0_linear_1138_41360)"/><path d="M452.027 63.837c-2.117-1.205-2.857-1.105-5.216-3.42 0 0-5.949 2.624-7.905 4.789-2.535 2.803-8.668 11.448-13.467 8.846 0 0 4.755 3.448 13.481-2.982 0 0 6.697-5.47 8.067-5.405 2.725.114 6.198-1.169 5.04-1.829z" fill="#626BEC"/><path d="M439.994 45.882s4.266 3.006 3.465-3.398c-.771-6.116-12.064-3.627-12.221-1.98 0 0 9.116 2.541 8.756 5.378z" fill="#7179F1"/><path d="M448.065 53.52c.254.813-.556 3.473-1.254 4.086-.691.606 2.77 4.158 3.897 3.445 1.149-.728 3.249-5.249 1.755-9.392-1.515-4.222-9.725-6.097-8.837-2.26 0 0 4.017 2.766 4.439 4.114v.007z" fill="#6871EE"/><path d="M437.534 53.099s3.871-8.23-4.003-8.696c0 0 .18 3.874-.093 5.819-.274 1.908 1.693 3.132 4.096 2.884V53.1z" fill="#6D75F0"/><path d="M444.381 57.505s3.07-5.52-4.364-7.279c0 0 .437 2.89-.806 5.049 0 0 1.546 2.223 5.17 2.23z" fill="#6871EE"/><path d="M434.89 79.03c2.482.942 4.907 2.058 4.892 5.408 0 0 3.724-2.89-.18-5.87-2.67-2.03-.411-2.7-.411-2.7s-4.381-.908-2.872 1.542c0 0-3.767-.23-5.081-.872 0 0 1.104 1.521 3.652 2.484v.007z" fill="#5964E9"/><defs><linearGradient id="paint0_linear_1138_41360" x1="236.977" y1="206.007" x2="236.977" y2=".015" gradientUnits="userSpaceOnUse"><stop offset=".06" stop-color="#4F006B"/><stop offset=".23" stop-color="#04001F"/><stop offset=".4" stop-color="#0E054D"/><stop offset=".62" stop-color="#5762EA"/><stop offset=".89" stop-color="#8F97FF"/><stop offset="1" stop-color="#54C1CC"/></linearGradient></defs></svg>