<svg xmlns="http://www.w3.org/2000/svg" width="12" height="13" fill="none" viewBox="0 0 12 13"> <path fill="#A09498" d="M.027 5.017a.812.812 0 0 1 .217-.348c.1-.095.222-.16.354-.19l3.131-.693L5.332.901a.782.782 0 0 1 .28-.293.74.74 0 0 1 .766 0 .78.78 0 0 1 .28.293L8.26 3.786l3.131.693a.78.78 0 0 1 .353.192.82.82 0 0 1 .218.346.832.832 0 0 1-.156.78L9.66 8.287l.332 3.328a.86.86 0 0 1-.062.406.823.823 0 0 1-.242.325.796.796 0 0 1-.452.154.888.888 0 0 1-.313-.067l-2.928-1.405-2.929 1.366a.735.735 0 0 1-.755-.096.782.782 0 0 1-.25-.317.82.82 0 0 1-.063-.404l.332-3.328L.184 5.758a.853.853 0 0 1-.157-.74Z"/></svg>