<svg xmlns="http://www.w3.org/2000/svg" width="22" height="20" fill="none" viewBox="0 0 22 20"> <path fill="#FF3B72" d="M.05 7.53c.077-.224.214-.425.398-.582.183-.157.407-.267.649-.317l5.74-1.154L9.775.67c.123-.204.3-.372.513-.49a1.459 1.459 0 0 1 1.405 0c.213.118.39.286.513.49l2.938 4.808 5.74 1.154c.24.053.463.163.646.32.183.158.321.356.401.578a1.27 1.27 0 0 1-.287 1.299L17.71 12.98l.608 5.546c.023.232-.017.464-.114.677-.097.213-.25.4-.443.541-.243.162-.531.25-.828.257a1.765 1.765 0 0 1-.573-.112l-5.37-2.34-5.368 2.276a1.47 1.47 0 0 1-1.385-.16 1.332 1.332 0 0 1-.457-.528 1.256 1.256 0 0 1-.117-.675l.608-5.546L.337 8.763a1.336 1.336 0 0 1-.303-.583 1.296 1.296 0 0 1 .016-.65Z"/></svg>