<svg xmlns="http://www.w3.org/2000/svg" width="22" height="22" fill="none" viewBox="0 0 22 22"> <g clip-path="url(#a)"> <path fill="#FF3B72" d="M11 3a1 1 0 0 1 .51.14c.158.096.288.23.38.39L14 7.38l4.18.93c.174.045.335.13.47.25.149.118.269.268.35.44.04.181.04.369 0 .55a1.13 1.13 0 0 1-.24.49l-2.86 3.32.44 4.44a1.1 1.1 0 0 1-.08.54 1 1 0 0 1-.93.64 1 1 0 0 1-.41-.09L11 17l-3.9 1.82a1.1 1.1 0 0 1-.4.08h-.13a1 1 0 0 1-.49-.2 1 1 0 0 1-.33-.42 1.26 1.26 0 0 1-.09-.54l.45-4.44L3.24 10A1.2 1.2 0 0 1 3 9.54 1.14 1.14 0 0 1 3 9a.93.93 0 0 1 .29-.46.94.94 0 0 1 .47-.25L8 7.38l2.14-3.85a1.15 1.15 0 0 1 .37-.39A1 1 0 0 1 11 3Zm0-3a4 4 0 0 0-3.52 2.09L6 4.74l-2.86.64a4 4 0 0 0-1.88 1A4 4 0 0 0 .17 8.13v.14a4.16 4.16 0 0 0 0 1.89 4.08 4.08 0 0 0 .82 1.73l2 2.35-.31 3.15a4 4 0 0 0 3.51 4.44c.166.01.333.01.5 0a3.881 3.881 0 0 0 1.61-.23h.06L11 20.36l2.63 1.26h.15c.47.196.971.304 1.48.32h.15a4.05 4.05 0 0 0 2.3-.78h.06l.06-.05a4.131 4.131 0 0 0 1.51-3.58L19 14.37 21 12a4.07 4.07 0 0 0 .8-3.89 4.16 4.16 0 0 0-1.09-1.75 4.1 4.1 0 0 0-1.83-1h-.05L16 4.74l-1.5-2.66a4.06 4.06 0 0 0-1.44-1.5A4 4 0 0 0 11 0Z"/> </g> <defs> <clipPath id="a"> <path fill="#fff" d="M0 0h22v22H0z"/> </clipPath> </defs></svg>