<svg xmlns="http://www.w3.org/2000/svg" viewBox="0 0 340 339"> <path fill="rgb(185, 43, 93)" fill-rule="evenodd" d="M338.569 183.284c-1.641 19.623-6.663 38.668-14.921 56.598-8.469 18.389-20.101 35.055-33.898 49.531-17.233 16.567-36.236 29.19-57.173 37.517-18.95 7.543-39.162 11.473-60.082 11.685-.582.008-1.168.008-1.753.008-9.091 0-18.265-.714-27.299-2.128-9.256-.995-18.113-3.629-27.216-6.495-17.07-5.548-32.791-13.664-45.47-23.475-1.228-.952-1.86-2.384-1.838-3.825.016-.993.337-1.985.989-2.83 1.604-2.068 4.581-2.445 6.65-.59 22.331 17.018 57.018 30.064 94.667 30.064 37.169 0 77.221-12.714 111.121-46.631 56-56.034 63.108-142.97 16.897-206.714-1.534-2.118-1.064-5.079 1.059-6.616.207-.144.417-.274.631-.386 2.05-1.055 4.618-.49 6.012 1.434 12.555 17.249 20.896 34.997 26.26 54.869 5.207 18.696 7.009 38.305 5.364 57.984zM278.768 60.703c-4.004-4.004-4.004-10.5 0-14.504 4.003-4.004 10.489-4.004 14.492 0 4.004 4.004 4.004 10.5 0 14.504-4.003 4.003-10.489 4.003-14.492 0zm-9.648-20.436c-1.765 1.167-3.5 1.18-5.744-.124-21.886-17.27-57.018-30.319-94.666-30.319-37.17 0-77.218 12.712-111.118 46.629-56.004 56.035-63.111 142.971-16.9 206.714.915 1.263 1.117 2.82.684 4.199.454.943-.882 1.803-1.744 2.426-.841.605-1.814.897-2.779.897-1.468 0-2.915-.579-3.753-1.956-12.15-15.753-20.982-34.997-26.35-54.569-5.208-18.994-6.491-38.605-5.36-58.285 1.92-19.627 7.1-38.663 14.917-56.595 8.473-18.392 20.104-35.055 34.577-49.535 16.554-16.564 35.566-29.188 56.498-37.516C126.328 4.694 146.544.759 167.46.548c9.661-.095 19.436.615 29.052 2.119 9.256 1.446 18.413 3.633 27.216 6.497 17.07 5.547 32.795 13.667 45.47 23.473 2.07 1.6 2.449 4.578 1.272 6.648-.724.385-1.074.915-1.35.982zM46.398 278.696c4.003-4.008 10.494-4.008 14.497 0 2.335 2.131 3.265 4.959 2.984 7.751-.115 2.459-1.113 4.885-2.988 6.763-4.004 4.003-10.494 4.003-14.493 0-2.63-2.634-3.533-6.335-2.709-9.703.429-1.766 1.521-2.797 2.709-4.811z"/></svg>