<svg xmlns="http://www.w3.org/2000/svg" viewBox="0 0 168 168"> <path fill="rgb(185, 43, 93)" fill-rule="evenodd" d="M141.2 52.911c-14.36 0-26.001-11.65-26.001-26.007C115.199 12.547 126.84.905 141.2.905c14.355 0 25.996 11.642 25.996 25.999S155.555 52.911 141.2 52.911zM26.802 167.3c-14.36 0-26.001-11.641-26.001-25.998 0-14.358 11.641-25.999 26.001-25.999 14.36 0 25.996 11.641 25.996 25.999 0 14.357-11.636 25.998-25.996 25.998zm0-114.389c-14.36 0-26.001-11.65-26.001-26.007C.801 12.547 12.442.905 26.802.905c14.36 0 25.996 11.642 25.996 25.999S41.162 52.911 26.802 52.911zM141.2 115.303c14.355 0 25.996 11.641 25.996 25.999 0 14.357-11.641 25.998-25.996 25.998-14.36 0-26.001-11.641-26.001-25.998 0-14.358 11.641-25.999 26.001-25.999z"/></svg>