<svg xmlns="http://www.w3.org/2000/svg" viewBox="0 0 187 178"> <path fill="#fff" fill-rule="evenodd" d="M186.945 75.722C186.945 33.943 145.25.5 93.486.5 41.976.5.68 33.943.68 75.722c0 37.427 32.613 68.804 77.521 74.722 3.057 1.496 7.181 1.99 8.238 4.896.933 2.069 1.101 6.63.311 8.145 0 0-1.107 7.045-1.335 7.987-.215 2.362-1.881 9.221 8.071 5.042 9.985-4.206 53.826-31.643 73.427-54.197 13.538-14.833 20.032-29.878 20.032-46.595zm-130.027 24.85H38.355c-2.721 0-4.899-2.176-4.899-4.896V58.607c0-2.72 2.178-4.922 4.899-4.922 3.255 0 4.902 2.202 4.902 4.922v32.16h13.661c2.713 0 4.898 2.216 4.898 4.909 0 2.72-2.185 4.896-4.898 4.896zm19.196-4.896c0 2.72-2.189 4.896-4.881 4.896-2.706 0-4.902-2.176-4.902-4.896V58.607c0-2.72 2.196-4.922 4.902-4.922 2.692 0 4.881 2.202 4.881 4.922v37.069zm44.701 0c0 2.11-1.342 3.98-3.343 4.644-.514.159-1.035.252-1.559.252-1.53 0-2.988-.743-3.925-1.951L92.976 72.71v22.966c0 2.72-2.192 4.896-4.346 4.896-3.251 0-5.458-2.176-5.458-4.896V58.607c0-2.136 1.342-3.98 3.339-4.67.739-.173 1.042-.252 2.269-.252.835 0 2.88.73 3.219 1.977l19.251 25.871V58.607c0-2.72 1.978-4.922 4.663-4.922 2.717 0 4.902 2.202 4.902 4.922v37.069zm30.049-23.43c2.692 0 4.902 2.189 4.902 4.882 0 2.694-2.21 4.982-4.902 4.982h-13.668v8.657h13.668c2.692 0 4.902 2.216 4.902 4.909 0 2.72-2.21 4.896-4.902 4.896h-18.577c-2.692 0-4.877-2.176-4.877-4.896V58.607c0-2.72 2.185-4.922 4.877-4.922h18.577c2.692 0 4.902 2.202 4.902 4.922 0 2.68-2.21 4.869-4.902 4.869h-13.668v8.77h13.668z"/></svg>