<svg
  height="48px"
  version="1.1"
  viewBox="0 0 48 48"
  width="40px"
  xmlns="http://www.w3.org/2000/svg"
  xmlns:xlink="http://www.w3.org/1999/xlink"
>
  <title></title>
  <desc></desc>
  <g
    fill="#e42887"
    fill-rule="evenodd"
    id="Page-1"
    stroke="none"
    stroke-width="1"
  >
    <g
      id="Artboard-Copy"
      transform="translate(-287.000000, -669.000000)"
    >
      <path
        d="M301,682.174221 C301,681.935509 301.085392,681.704672 301.240743,681.523429 C301.600166,681.104103 302.231466,681.055542 302.650791,681.414964 L314.114201,691.240743 C314.153079,691.274068 314.189341,691.31033 314.222666,691.349209 C314.582088,691.768534 314.533526,692.399834 314.114201,692.759257 L302.650791,702.585036 C302.469548,702.740387 302.238711,702.825779 302,702.825779 C301.447715,702.825779 301,702.378064 301,701.825779 L301,682.174221 Z M318.91,680 C318.406,680 318,680.414 318,680.924 L318,703.076 C318,703.588 318.406,704 318.91,704 L320.09,704 C320.594,704 321,703.588 321,703.076 L321,680.924 C321,680.414 320.594,680 320.09,680 L318.91,680 Z"
        id="next1"
      />
      <g id="slices" transform="translate(47.000000, 9.000000)"></g>
    </g>
  </g>
</svg>
