<svg fill="none" height="24" viewBox="0 0 24 24" width="24" xmlns="http://www.w3.org/2000/svg">
  <path clip-rule="evenodd" d="M7 6C7 5.44772 7.44772 5 8 5H20C20.5523 5 21 5.44772 21 6C21 6.55228 20.5523 7 20 7H8C7.44772 7 7 6.55228 7 6Z" fill="#b92b5d" fill-rule="evenodd"/>
  <path clip-rule="evenodd" d="M7 12C7 11.4477 7.44772 11 8 11H20C20.5523 11 21 11.4477 21 12C21 12.5523 20.5523 13 20 13H8C7.44772 13 7 12.5523 7 12Z" fill="#b92b5d" fill-rule="evenodd"/>
  <path clip-rule="evenodd" d="M7 18C7 17.4477 7.44772 17 8 17H20C20.5523 17 21 17.4477 21 18C21 18.5523 20.5523 19 20 19H8C7.44772 19 7 18.5523 7 18Z" fill="#b92b5d" fill-rule="evenodd"/>
  <path d="M5 6C5 6.55228 4.55228 7 4 7C3.44772 7 3 6.55228 3 6C3 5.44772 3.44772 5 4 5C4.55228 5 5 5.44772 5 6Z" fill="#b92b5d"/>
  <path d="M5 12C5 12.5523 4.55228 13 4 13C3.44772 13 3 12.5523 3 12C3 11.4477 3.44772 11 4 11C4.55228 11 5 11.4477 5 12Z" fill="#b92b5d"/>
  <path d="M5 18C5 18.5523 4.55228 19 4 19C3.44772 19 3 18.5523 3 18C3 17.4477 3.44772 17 4 17C4.55228 17 5 17.4477 5 18Z" fill="#b92b5d"/>
</svg>
