<svg xmlns="http://www.w3.org/2000/svg" viewBox="0 0 19 17"> <path fill="#fff" fill-rule="evenodd" d="M18.222 2.4c-.664.313-1.376.521-2.122.616.762-.485 1.347-1.251 1.623-2.168-.713.451-1.503.777-2.344.953-.674-.761-1.635-1.237-2.697-1.237-2.038 0-3.692 1.754-3.692 3.915 0 .308.034.605.097.893C6.016 5.21 3.296 3.649 1.474 1.28c-.317.579-.499 1.251-.499 1.97 0 1.357.652 2.557 1.642 3.259-.604-.02-1.174-.198-1.672-.49-.002.017-.002.033-.002.049 0 1.899 1.275 3.48 2.964 3.838-.311.09-.638.139-.973.139-.238 0-.47-.026-.694-.071.469 1.556 1.833 2.689 3.448 2.719-1.264 1.051-2.856 1.676-4.585 1.676-.299 0-.592-.016-.882-.055 1.635 1.112 3.576 1.76 5.661 1.76 6.794 0 10.508-5.966 10.508-11.141 0-.169-.006-.337-.012-.505.722-.553 1.347-1.243 1.844-2.028z"/></svg>