<svg width="450" height="198" fill="none" xmlns="http://www.w3.org/2000/svg"><path d="M449.36 150.704c-.112-.329-.231-.65-.365-.97-2.031-7.222-10.727-12.027-22.533-12.027-1.86 0-3.734.127-5.579.373-7.588 1.007-14.246 4.409-17.795 9.11-2.291 3.029-3.236 6.498-2.737 10.049 1.041 7.364 8.867 11.46 15.771 15.079 2.767 1.454 7.372 3.864 8.079 5.185-.015.358-.425.85-.558 1-1.697 1.954-6.361 4.028-11.672 4.028-1.101 0-2.493-.097-3.936-.425a12.316 12.316 0 001.161-5.491c-.134-6.103-4.494-10.885-9.924-10.885h-.201c-2.752.059-5.371 1.417-7.179 3.715-.305.381-.565.791-.818 1.216l-.082-.015a7.56 7.56 0 00-.469-.835c-.892-1.395-2.164-2.485-3.652-3.223 5.401-3.395 9.009-7.484 9.849-11.826.685-3.573-.096-6.856-2.269-9.505-3.258-3.962-9.455-6.14-17.452-6.14-7.997 0-16.894 2.402-22.578 6.267-12.996 8.841-21.618 22.465-20.971 33.141.372 6.095 3.697 11.064 9.381 13.989 4.129 2.126 9.232 3.253 14.744 3.253 12.111 0 24.475-5.335 31.066-13.318.35-.358.67-.738.975-1.126a15.4 15.4 0 002.618 5.924c3.155 4.357 8.526 7.14 15.132 7.848 2.633.284 5.229.426 7.707.426 15.919 0 26.029-5.909 27.74-16.205 1.615-9.759-8.748-15.28-16.314-19.309-2.581-1.373-6.472-3.447-7.201-4.514-.342-.85-.149-1.343.112-1.738 1.019-1.552 4.322-3.111 9.41-3.111.484 0 .945.022 1.399.045a12.063 12.063 0 00.387 6.237c1.554 4.723 5.587 7.893 10.043 7.893.959 0 1.904-.149 2.812-.455 2.611-.865 4.724-2.924 5.78-5.655.967-2.484 1.012-5.327.126-7.998l-.007-.007zm-85.796 31.231c-5.966 0-9.135-1.918-9.507-2.947a9.483 9.483 0 01-.551-3.313c6.197-.216 12.215-1.134 17.698-2.582-.089.232-.186.463-.26.702-.767 2.41-.61 4.924.409 7.058a29.098 29.098 0 01-7.789 1.082zm15.808-30.194c-2.552 7.804-12.133 11.086-21.715 12.362 1.198-1.94 2.656-3.976 4.352-6.088 4.672-5.812 11.122-8.46 15.131-8.46 1.667 0 2.351.447 2.433.559.037.052.149.545-.201 1.627z" fill="#F5BDD5"/><path d="M322.283 170.944a12.288 12.288 0 00-5.266 1.202c2.08-4.475 4.91-10.567 7.948-17.112h13.497v-.023c5.861-.222 10.548-4.526 10.548-9.81 0-5.284-4.94-9.832-11.016-9.832-1.508 0-2.949.274-4.264.764.268-.579.535-1.15.795-1.722l2.771-5.973h-10.741l-1.248 1.306c-8.929 9.379-19.893 13.706-25.107 13.884h-7.837c1.441-3.109 2.882-6.219 4.279-9.217l2.77-5.973h-10.741l-1.248 1.306c-8.921 9.372-20.256 13.75-25.53 13.884h-2.704l-.557 1.261a4.077 4.077 0 00-1.018 1.774 10.749 10.749 0 00-1.04-1.521c-3.253-3.941-9.441-6.108-17.426-6.108-7.985 0-16.869 2.39-22.545 6.234-11.379 7.71-19.394 19.079-20.769 28.919-1.857-2.041-4.642-3.258-7.777-3.258-1.389 0-2.778.245-4.115.72-.453.163-.891.356-1.315.564a97277.098 97277.098 0 0021.713-46.773l2.77-5.974h-18.986l-1.136 2.434c-4.747 10.181-18.905 40.591-24.669 53.177-1.813-2.567-4.925-4.141-8.483-4.141-1.389 0-2.778.245-4.116.72-.23.082-.46.178-.683.275 3.506-6.827 8.802-17.276 13.215-26.774l2.77-5.974h-13.318a89.431 89.431 0 00-5.556-.186c-11.796 0-21.549 2.553-29.861 7.896 3.914-3.54 6.447-7.755 7.517-12.63 1.055-4.794.111-9.202-2.734-12.734-5.667-7.05-19.097-10.619-39.904-10.619h-33.1c-19.773 0-33.775 7.339-38.418 20.132-2.243 6.189-1.738 12.608 1.412 18.07 3.186 5.521 8.75 9.357 15.272 10.522 1.144.208 2.347.312 3.565.312 7.97 0 16.402-4.423 21.044-10.53-1.916 3.97-3.692 7.606-5.11 10.456-8.09 16.207-13.943 24.437-23.458 24.437-1.144 0-2.214-.141-3.217-.423a10.892 10.892 0 002.065-3.703c.884-2.761.743-5.848-.393-8.698-1.895-4.741-6.233-7.925-10.808-7.925-1.24 0-2.444.23-3.588.683-2.756 1.098-4.888 3.45-5.854 6.448-.059.179-.096.357-.148.535l-.126.022-.037.623a12.676 12.676 0 00-.164 4.208c.527 8.519 8.966 20.348 22.79 21.683 1.634.156 3.23.238 4.754.238 18.577 0 27.172-11.844 33.701-24.652.35-.69 3.008-5.981 6.552-13.038 19.216-.609 33.761-3.889 43.283-9.669-2.124 1.795-4.144 3.806-6.083 6.04-7.792 8.987-11.454 19.487-9.56 27.398 1.121 4.689 4.137 8.251 8.483 10.025 2.109.861 4.449 1.299 6.96 1.299 5.014 0 10.429-1.789 15.443-4.549.052.089.104.178.163.267 1.263 1.937 3.915 4.252 9.382 4.252.565 0 1.159-.03 1.761-.074 6.009-.512 14.507-3.184 19.795-5.551l1.731-.779c.253.772.587 1.425.944 1.966 1.864 2.857 5.355 4.438 9.827 4.438.572 0 1.166-.03 1.768-.074 4.739-.408 10.838-2.508 15.517-4.401a12.4 12.4 0 003.254-.682c2.644-.943 4.85-2.709 6.21-4.987a8.77 8.77 0 00.453-.861c1.552 3.25 4.204 5.922 7.8 7.769 4.122 2.115 9.158 3.229 14.573 3.229 11.12 0 22.144-4.446 29.007-11.495a.31.31 0 00.082-.052c2.362-1.514 4.1-3.748 4.91-6.271.884-2.775.535-5.691-.951-7.999-.891-1.388-2.161-2.479-3.647-3.206 5.215-3.265 8.75-7.176 9.738-11.339h9.419c-4.048 8.608-9.864 21.03-11.439 24.585-2.504 5.655-1.426 9.291-.089 11.339 1.864 2.857 5.355 4.438 9.827 4.438.572 0 1.166-.03 1.768-.075 5.185-.445 11.729-2.53 16.765-4.578a12.156 12.156 0 005.029-2.182l.282-.126-.022-.074a11.345 11.345 0 002.823-3.206c-.179 2.627.557 4.527 1.389 5.81 1.864 2.857 5.356 4.438 9.827 4.438.572 0 1.166-.03 1.768-.074 4.814-.408 10.734-2.427 15.614-4.416a12.117 12.117 0 003.038-.667c5.742-2.041 8.936-7.867 7.116-12.994-1.359-3.829-5.133-6.301-9.612-6.301l.037.023zM54.655 141.75l-.089-.066a12.381 12.381 0 00-.06-4.022c-.579-3.117-2.413-5.774-5.028-7.28a10.246 10.246 0 00-5.118-1.358c-4.197 0-8.208 2.441-10.481 6.367-1.56 2.701-2.125 5.795-1.575 8.719.178.972.498 1.885.906 2.746a8.645 8.645 0 01-2.161.297c-.72 0-1.36-.119-1.91-.342-1.158-.475-1.968-1.298-2.399-2.434-.75-1.959-.356-4.764 1.078-7.695 4.345-8.89 14.625-13.216 31.42-13.216h4.1a4061.798 4061.798 0 01-8.675 18.292l-.008-.008zm48.825-8.585c-.668 2.805-4.702 11.183-28.538 13.186 4.315-8.608 8.668-17.283 11.394-22.715 8.06.572 14.01 2.523 16.335 5.469.936 1.18 1.188 2.472.809 4.06zm28.822 35.315c-1.375 2.731-2.556 5.076-3.492 6.968-4.679 3.748-9.381 5.684-12.479 5.684-.557 0-1.575-.074-2.043-.556-1.463-1.507 1.471-10.033 9.33-17.751 5.935-5.832 12.353-9.335 16.661-10.329a1404.19 1404.19 0 01-7.97 15.984h-.007zm93.468 13.15c-5.958 0-9.122-1.907-9.493-2.932a9.376 9.376 0 01-.55-3.294c6.188-.216 12.197-1.128 17.671-2.568-.089.23-.185.46-.26.698-.765 2.397-.609 4.897.409 7.02a29.166 29.166 0 01-7.777 1.076zm15.785-30.032c-2.548 7.762-12.116 11.027-21.683 12.296 1.196-1.929 2.652-3.955 4.345-6.055 4.665-5.781 11.105-8.415 15.109-8.415 1.664 0 2.347.445 2.429.556.037.052.149.542-.2 1.618zm53.074 28.006c-.038.081-.067.163-.104.252a9.012 9.012 0 00-.498-2.619c-1.36-3.83-5.133-6.301-9.612-6.301a12.288 12.288 0 00-5.267 1.202c2.065-4.445 4.881-10.492 7.948-17.112h18.965c-4.049 8.608-9.865 21.031-11.44 24.585l.008-.007zm81.822-96.423c1.953 2.998 5.638 4.654 10.362 4.654.586 0 1.18-.03 1.782-.075 5.244-.445 11.342-2.568 16.133-4.572a10.944 10.944 0 001.983-.512 12.203 12.203 0 003.417-1.87l.097-.044v-.023a11.376 11.376 0 002.696-3.05c1.493-2.501 1.827-5.418.906-8.008-1.359-3.83-5.133-6.301-9.612-6.301-1.389 0-2.778.245-4.114.72-.454.163-.892.356-1.315.564 5.838-12.565 17.477-37.651 21.711-46.78l2.77-5.974h-18.985l-1.136 2.434c-7.071 15.178-23.828 51.188-26.717 57.72-2.414 5.47-1.323 9.069.014 11.124l.008-.007zm-58.587-12.564c.369 6.087 3.672 11.049 9.316 13.97 4.101 2.123 9.11 3.248 14.482 3.248 10.89 0 21.707-4.374 28.526-11.34.141-.082.289-.164.422-.253 2.349-1.52 4.078-3.763 4.883-6.296.879-2.786.532-5.715-.945-8.032-.894-1.393-2.15-2.48-3.628-3.218 5.364-3.39 8.947-7.473 9.782-11.81.68-3.568-.096-6.846-2.261-9.491-3.236-3.956-9.39-6.132-17.333-6.132-7.943 0-16.779 2.4-22.424 6.259-12.908 8.828-21.471 22.433-20.828 33.095h.008zm28.371-20.474c4.64-5.804 11.046-8.45 15.028-8.45 1.655 0 2.335.448 2.416.56.037.052.148.544-.199 1.624-2.535 7.793-12.051 11.071-21.567 12.345 1.189-1.937 2.638-3.97 4.322-6.08zM355.36 65.2c-.089.231-.185.462-.259.7-.761 2.407-.606 4.918.407 7.049-2.498.7-5.113 1.08-7.736 1.08-5.926 0-9.073-1.915-9.443-2.943a9.499 9.499 0 01-.546-3.308c6.154-.216 12.132-1.133 17.577-2.585v.007z" fill="#F5BDD5"/><path d="M164.906 48.912c-7.678 8.93-11.113 19.117-9.18 27.247 1.167 4.907 4.274 8.632 8.764 10.472 2.111.867 4.438 1.309 6.921 1.309 4.988 0 10.258-1.78 15.12-4.54 1.88 2.902 5.396 4.502 9.908 4.502.58 0 1.175-.03 1.77-.075 4.222-.366 9.113-2.333 13.714-4.397h.149c1.39 0 2.78-.247 4.118-.726 2.23-.8 4.141-2.199 5.501-3.986.394.8.833 1.578 1.368 2.31 3.152 4.369 8.519 7.166 15.12 7.869 2.631.284 5.225.426 7.701.426 15.907 0 26.01-5.923 27.719-16.245 1.613-9.783-8.742-15.318-16.301-19.357-2.58-1.376-6.468-3.455-7.196-4.525-.342-.852-.149-1.346.111-1.742 1.019-1.556 4.319-3.12 9.404-3.12.483 0 .951.016 1.397.046a12.178 12.178 0 00.387 6.26c1.553 4.734 5.582 7.913 10.035 7.913.959 0 1.903-.15 2.81-.456 2.609-.868 4.72-2.932 5.776-5.67.58-1.503.825-3.14.736-4.786h8.191c-4.051 8.676-9.871 21.196-11.447 24.779-2.416 5.505-1.323 9.14.015 11.211 1.955 3.022 5.642 4.69 10.369 4.69.588 0 1.182-.03 1.785-.075 4.333-.374 9.76-1.937 16.145-4.615a13.14 13.14 0 001.866-.5 12.307 12.307 0 003.167-1.698l.275-.12-.023-.067a11.452 11.452 0 002.795-3.142c1.494-2.52 1.829-5.46.907-8.07-1.368-3.86-5.144-6.35-9.619-6.35a12.22 12.22 0 00-5.27 1.212c2.163-4.682 5.07-10.988 7.954-17.248h13.15c6.028-.06 10.912-4.48 10.912-9.91s-4.943-9.91-11.024-9.91c-1.509 0-2.951.277-4.267.77.29-.636.558-1.219.796-1.735l2.772-6.021h-10.749l-1.248 1.316c-8.772 9.282-20.599 13.822-25.891 13.994h-2.349l-.327.748a4.228 4.228 0 00-1.814 3.329 11.37 11.37 0 00-2-1.848c-3.85-4.33-10.644-6.97-19.052-6.97-1.68 0-3.397.112-5.084.336-7.582 1.01-14.235 4.42-17.781 9.132-2.29 3.037-3.234 6.515-2.736 10.075 1.041 7.382 8.861 11.488 15.759 15.116 2.766 1.458 7.367 3.874 8.073 5.198-.015.359-.424.853-.558 1.002-1.694 1.96-6.355 4.04-11.663 4.04-1.434 0-3.352-.165-5.248-.794a12.297 12.297 0 00.982-5.138c-.134-6.118-4.49-10.92-9.917-10.92h-.201c-2.75.067-5.366 1.421-7.173 3.725-.49.62-.899 1.309-1.249 2.027-1.724-1.242-3.902-1.952-6.289-1.952-1.39 0-2.779.246-4.118.725-.23.082-.461.18-.684.277 3.509-6.881 8.809-17.412 13.217-26.986l2.773-6.02h-13.313a89.588 89.588 0 00-5.576-.188c-17.557 0-30.618 5.67-41.092 17.846h.007zm18.495 6.178c5.939-5.879 12.362-9.409 16.673-10.411-2.824 5.811-5.664 11.488-7.976 16.118-1.375 2.752-2.557 5.116-3.494 7.023-4.683 3.777-9.388 5.73-12.488 5.73-.557 0-1.576-.076-2.044-.562-1.464-1.518 1.472-10.112 9.336-17.89l-.007-.008z" fill="#F5BDD5"/><path d="M83.638 87.595c1.63.157 3.217.24 4.73.24 16.978 0 25.474-9.937 32.999-24.857.349-.695 3.003-6.03 6.539-13.146 33.036-1.055 52.283-10.086 55.812-26.285 1.09-4.998.148-9.548-2.728-13.154C175.34 3.3 162.685 0 141.162 0h-33.036C88.39 0 74.415 7.4 69.781 20.3c-2.239 6.24-1.735 12.712 1.409 18.219 3.18 5.567 8.734 9.435 15.243 10.61 1.142.21 2.342.314 3.551.314 7.955 0 16.37-4.46 21.004-10.617a1013.954 1013.954 0 01-5.101 10.542c-8.074 16.342-13.916 24.64-23.413 24.64-1.142 0-2.21-.143-3.21-.427a11.01 11.01 0 002.06-3.734c.883-2.783.75-5.896-.392-8.77-1.89-4.78-6.228-7.99-10.788-7.99a9.59 9.59 0 00-3.58.688c-2.75 1.108-4.879 3.48-5.843 6.502-.059.18-.096.36-.148.539l-.126.023-.037.628a12.906 12.906 0 00-.133 4.407c.719 8.41 9.526 20.344 23.368 21.699l-.007.022zm62.647-74.793c11.618.696 15.295 3.696 16.377 5.08.594.756 1.313 2.058.72 4.565-.668 2.828-4.693 11.276-28.485 13.296 4.315-8.695 8.675-17.464 11.388-22.94zm-36.795 6.832a10.134 10.134 0 00-5.108-1.37c-4.189 0-8.193 2.462-10.461 6.42-1.557 2.724-2.12 5.844-1.572 8.792.178.98.497 1.9.905 2.768-.712.187-1.439.3-2.158.3-.72 0-1.356-.12-1.905-.345-1.157-.479-1.965-1.302-2.395-2.454-.741-1.975-.356-4.803 1.075-7.759 4.337-8.964 14.598-13.326 31.361-13.326h4.092a3732.162 3732.162 0 01-8.659 18.436l-.089-.067a12.576 12.576 0 00-.059-4.048c-.579-3.142-2.41-5.821-5.02-7.34l-.007-.007zm151.706 81.309c-1.352-2.351-4.017-3.757-7.12-3.757-1.663 0-3.423.409-5.049 1.168-.26-5.446-3.905-9.775-8.352-9.775-4.447 0-8.048 4.277-8.345 9.678-1.648-.781-3.437-1.205-5.13-1.205-3.103 0-5.769 1.406-7.12 3.757-1.247 2.164-1.254 4.872-.015 7.416.839 1.719 2.198 3.274 3.883 4.449-1.722 1.183-3.11 2.76-3.964 4.508-1.24 2.544-1.233 5.244.015 7.417 1.351 2.35 4.016 3.756 7.119 3.756 1.663 0 3.423-.409 5.049-1.168.26 5.446 3.905 9.775 8.352 9.775 4.447 0 8.048-4.277 8.352-9.678 1.649.781 3.438 1.205 5.131 1.205 3.103 0 5.761-1.406 7.119-3.749 1.248-2.165 1.255-4.873.015-7.417-.839-1.718-2.197-3.273-3.883-4.448 4.343-2.991 6.118-8.153 3.95-11.918l-.007-.014z" fill="#F5BDD5"/><path d="M446.279 152.309c0-8.403-12.582-13.646-24.204-12.099-9.098 1.212-17.886 6.737-16.814 14.323 1.347 9.563 22.769 13.37 23.716 20.123 1.088 7.771-17.598 13.966-27.259 6.574 2.367-.848 4.069-3.54 4.002-6.701-.081-3.785-2.67-6.797-5.785-6.73-2.796.06-5.059 2.603-5.422 5.868-1.317 7.183 3.699 13.884 14.025 14.999 14.366 1.547 28.828-1.138 30.662-12.233 1.798-10.872-20.638-15.587-23.079-21.343-2.449-5.756 3.514-10.768 13.3-10.768 1.753 0 3.373.164 4.853.454 1.309.468 2.086.877 2.197 1.212a.743.743 0 01.014.402c-1.597 1.621-2.189 4.387-1.302 7.094 1.184 3.599 4.535 5.719 7.487 4.737 2.3-.766 3.669-3.183 3.609-5.912h.008-.008zm-260.342 21.143c-3.596 1.273-5.656 4.691-4.6 7.639a4.746 4.746 0 001.169 1.802c.33.417.39.737.225 1.05-.09.179-.42.35-.937.514-2.315.528-4.398.729-5.664.23-3.769-1.496-1.791-5.807-.165-9.232 1.394-2.927 19.9-42.598 25.272-54.124h-9.793c-5.372 11.474-23.893 51.041-26.912 57.832-3.536 7.959 1.558 10.335 7.357 9.843 4.863-.417 12.175-2.509 17.577-4.78.098-.03.195-.06.3-.089 3.596-1.274 5.656-4.691 4.6-7.64-1.056-2.948-4.825-4.311-8.421-3.038l-.008-.007zm33.662-26.449c-16.524 11.308-26.718 32.389-12.005 40.013 11.901 6.17 31.942 1.7 40.675-9.197 2.204-2.149 2.879-5.257 1.432-7.518-1.691-2.651-5.631-3.123-8.807-1.056s-4.385 5.886-2.693 8.529c.564.877 1.372 1.513 2.322 1.903.393.322.519.614.43.951-.052.209-.363.479-.905.786-11.33 5.227-24.997 3.198-27.141-2.748-1.002-2.779-1.017-5.804-.267-8.979 22.073.224 40.979-8.89 42.641-17.607 2.463-12.895-23.513-13.435-35.704-5.092l.022.015zm22.875 33.108h.097s-.015.007-.022.015l-.082-.015h.007zm3.651-28.907c-3.354 10.335-15.478 15.18-32.706 15.951 1.55-4.381 4.414-9.001 8.117-13.644 10.202-12.776 28.136-13.241 24.589-2.307zm110.848-4.201c-16.518 11.308-26.717 32.389-12.001 40.013 11.897 6.17 31.931 1.7 40.668-9.197 2.203-2.149 2.878-5.257 1.432-7.518-1.691-2.651-5.63-3.123-8.804-1.056-3.175 2.067-4.384 5.886-2.693 8.529.564.877 1.373 1.513 2.322 1.903.393.322.519.614.43.951-.052.209-.363.479-.905.786-11.326 5.227-24.988 3.198-27.125-2.748-1.001-2.779-1.016-5.804-.267-8.979 22.067.224 40.966-8.89 42.627-17.607 2.47-12.895-23.505-13.435-35.684-5.092v.015zm22.867 33.108h.097l-.015.007-.082-.015v.008zm3.65-28.907c-3.353 10.335-15.473 15.18-32.696 15.951 1.551-4.381 4.414-9.001 8.115-13.644 10.198-12.776 28.126-13.241 24.581-2.307zm-63.426 22.224c-3.568 1.274-5.612 4.696-4.564 7.647a4.766 4.766 0 001.159 1.804c.327.418.387.738.223 1.051-.118.231-.602.44-1.389.649-2.059.432-3.895.559-5.032.096-3.739-1.498-1.777-5.813-.164-9.242.751-1.588 6.511-14.036 12.464-26.916h15.75c3.746-.007 6.785-2.534 6.785-5.65 0-3.115-3.047-5.649-6.808-5.649-3.76 0-6.808 2.526-6.808 5.649 0 .492.082.969.223 1.424.238.984-.743 1.126-1.895 1.237h-5.864c2.497-5.404 4.972-10.748 7.061-15.265h-2.342c-9.424 9.943-21.739 15.265-28.495 15.265 0-.014-.06 0-.06 0h-14.054c2.497-5.404 4.972-10.748 7.06-15.265h-2.341c-9.424 9.943-21.739 15.265-28.495 15.265 0-.014-.06 0-.06 0l-1.323 2.989h14.189c-3.308 7.052-12.249 26.148-14.226 30.628-3.508 7.968 1.546 10.346 7.298 9.854 5.04-.433 12.732-2.699 18.15-5.091 3.226-1.409 5.017-4.629 4.021-7.432-1.048-2.951-4.786-4.315-8.354-3.041-3.567 1.275-5.611 4.696-4.563 7.648a4.762 4.762 0 001.159 1.804c.327.417.387.737.223 1.051-.119.231-.602.439-1.39.648-2.058.432-3.894.559-5.031.097-3.739-1.498-1.777-5.814-.164-9.243.751-1.587 6.511-14.035 12.464-26.915h28.303c-3.308 7.051-12.249 26.148-14.226 30.627-3.508 7.968 1.546 10.346 7.299 9.854 5.039-.432 12.731-2.698 18.149-5.091 3.226-1.409 5.017-4.629 4.022-7.431-1.048-2.952-4.787-4.316-8.354-3.041v-.015zm-168.346.673c-3.588 1.279-5.643 4.712-4.589 7.674.246.695.65 1.301 1.166 1.809.329.419.389.741.224 1.055-.119.232-.62.456-1.435.658-2.048.419-3.864.546-5.001.09-3.759-1.504-1.786-5.834-.164-9.274.897-1.907 10.106-19.325 17.139-34.499h-6.862c-18.798-1.226-32.693 3.575-43.606 16.191-10.913 12.617-12.228 27.111-2.683 31.014 6.974 2.857 16.691-.8 24.285-6.528-1.622 6.027 2.511 7.867 7.654 7.426 5.164-.441 13.095-2.797 18.551-5.243v-.022c3.042-1.481 4.687-4.592 3.723-7.307-1.054-2.961-4.814-4.33-8.402-3.051v.007zm-40.168 7.943c-4.656-4.802 2.205-16.73 9.455-23.865 9.456-9.296 21.362-14.359 26.079-10.776-5.434 11.345-11.481 23.101-14.471 29.196-8.184 6.858-17.281 9.349-21.063 5.445zm8.42-50.611c3.618-16.467-23.682-18.29-38.535-18.29h-33.11c-16.787 0-30.258 5.767-34.464 17.405-3.901 10.789 2.809 21.17 13.472 23.082 8.262 1.488 18.353-4.003 21.927-10.857.082-.126.171-.253.253-.394 2.192-3.802 1.337-8.401-1.91-10.284-3.247-1.882-7.66-.32-9.853 3.475-2.088 3.624-1.404 7.977 1.486 10.001a.942.942 0 01.142.581c-.023.349-.528.87-1.42 1.533-3.232 1.681-7.051 2.425-10.202 1.131-5.209-2.143-7.17-8.401-3.507-15.917 5.892-12.084 19.639-15.619 35.213-15.619H70.2c-3.864 8.237-14.735 31.357-20.345 42.615-7.81 15.679-14.646 26.841-27.233 26.841-3.59 0-6.465-1.027-8.754-2.62-.876-1.123-1.33-1.912-1.248-2.277.074-.342.32-.558.765-.692l.09-.022c.037-.007.066-.022.111-.03h-.007c.156-.052.312-.096.468-.156 3.329-1.325 4.718-5.678 3.113-9.711s-5.603-6.228-8.93-4.903c-2.742 1.093-4.169 4.248-3.679 7.59.365 5.982 6.807 16.735 18.993 17.91 17.395 1.689 26.29-6.421 34.3-22.189.386-.752 3.581-7.136 7.675-15.314 19.602-.379 50.276-3.847 54.459-22.896l-.007.007zm-12.157.789c-1.843 7.746-11.77 16.095-39.657 16.839a89784.98 89784.98 0 0015.872-31.721c17.477.543 25.747 6.637 23.785 14.882zm280.584-50.419c4.785-.417 11.403-2.509 16.652-4.787.088-.03.176-.053.265-.082 3.533-1.274 5.557-4.691 4.52-7.64-1.038-2.948-4.741-4.311-8.275-3.038-3.533 1.273-5.557 4.691-4.52 7.64a4.76 4.76 0 001.355 2.003c-.427.685-1.266 1.22-2.024 1.6-1.819.343-3.423.41-4.454 0-3.703-1.496-1.759-5.807-.162-9.232 1.369-2.927 19.552-42.598 24.83-54.124h-9.621c-5.279 11.474-23.483 51.041-26.442 57.832-3.475 7.96 2.179 10.335 7.876 9.843v-.015zm-59.007-2.719c11.898 6.17 31.934 1.7 40.665-9.195 2.203-2.15 2.878-5.257 1.431-7.518-1.691-2.65-5.63-3.122-8.812-1.056-3.175 2.067-4.384 5.886-2.693 8.529.935 1.468 2.559 2.261 4.369 2.329-.066.037-.126.082-.193.12l-2.522-.577c.416.33.542.629.453.973-.089.345-.838.824-2.129 1.4.089.038.178.053.274.075-10.971 4.343-23.492 2.232-25.532-3.436-1.001-2.778-1.016-5.803-.267-8.978 22.068.232 40.969-8.888 42.63-17.604 2.463-12.893-23.507-13.433-35.687-5.091-16.519 11.306-26.711 32.384-12.002 40.006l.015.023zm13.938-33.508c10.2-12.773 28.129-13.245 24.583-2.306-3.353 10.333-15.474 15.178-32.698 15.949 1.551-4.38 4.414-9 8.115-13.643zM289.749 81.81c5.049-.432 12.103-2.698 17.532-5.09 3.233-1.41 5.028-4.63 4.03-7.433-1.05-2.952-4.797-4.317-8.372-3.042-3.575 1.275-5.623 4.697-4.573 7.649a4.767 4.767 0 001.162 1.804c.328.417.387.738.223 1.05-.119.232-.603.44-1.392.65-2.064.432-3.903.559-5.05.096-3.747-1.498-1.78-5.814-.164-9.243.752-1.588 6.524-14.038 12.49-26.92h17.049l-.067-.096c3.18-.477 5.601-2.78 5.601-5.554 0-3.116-3.054-5.65-6.822-5.65-3.769 0-6.823 2.526-6.823 5.65 0 .492.082.97.224 1.424.238.984-.745 1.126-1.9 1.237h-5.876c2.502-5.412 4.983-10.757 7.076-15.267h-2.347c-9.444 9.945-21.785 15.267-28.556 15.267 0-.014-.059 0-.059 0l-1.326 2.99h14.218c-3.314 7.052-12.274 26.15-14.255 30.631-3.516 7.969 2.204 10.347 7.969 9.855l.008-.007zm-51.378.413c14.41 1.546 28.917-1.138 30.757-12.231 1.803-10.871-20.702-15.585-23.151-21.34-2.456-5.755 3.525-10.767 13.342-10.767 2.923 0 5.483.44 7.62 1.198a.733.733 0 01-.111.483c-1.922 1.546-2.701 4.55-1.729 7.472 1.187 3.6 4.549 5.718 7.509 4.737 2.308-.766 3.681-3.183 3.621-5.911h.008c0-8.402-12.622-13.644-24.279-12.098-9.127 1.212-17.942 6.737-16.866 14.32 1.35 9.563 22.839 13.37 23.789 20.121 1.106 7.926-18.38 14.194-27.893 6.127 1.877-1.145 3.139-3.525 3.079-6.253-.081-3.785-2.678-6.796-5.802-6.73-3.117.068-5.58 3.198-5.491 6.982.044 2.053.831 3.874 2.033 5.101 1.692 4.491 6.329 8.008 13.572 8.781l-.008.008zm-48.598-7.712c-1.389 5.908 3.208 7.717 8.274 7.276 5.132-.441 12.359-2.797 17.781-5.242v-.022c3.023-1.481 4.657-4.592 3.699-7.306-1.047-2.962-4.783-4.33-8.348-3.051-3.566 1.279-5.608 4.71-4.561 7.672.401 1.137 1.204 2.042 2.236 2.647-.29.27-1.085.524-2.303.756.052.037.112.06.164.09-2.095.448-3.959.583-5.118.119-3.736-1.503-1.775-5.833-.163-9.273.891-1.907 10.042-19.323 17.031-34.495h-6.818c-18.681-1.227-32.488 3.574-43.332 16.19-10.844 12.615-11.498 27.107-2.013 31.018 6.87 2.826 16.14-.74 23.463-6.386l.008.007zm-9.114-24.25c9.396-9.296 21.228-14.358 25.915-10.777-5.4 11.344-11.409 23.1-14.387 29.194-8.126 6.858-17.173 9.348-20.931 5.444-4.627-4.8 2.191-16.728 9.396-23.862h.007zM84.353 80.917c17.388 1.682 25.625-6.42 33.632-22.188.387-.751 3.581-7.135 7.673-15.312 19.595-.38 50.249-3.847 54.438-22.895 3.617-16.466-21.689-18.289-38.52-18.289h-33.098C91.699 2.233 78.233 8 74.021 19.637c-3.9 10.796 2.808 21.168 13.466 23.08 8.26 1.489 18.347-4.003 21.92-10.855.081-.127.17-.253.245-.395 2.191-3.802 1.337-8.4-1.917-10.283-3.245-1.882-7.658-.32-9.849 3.475-2.087 3.624-1.404 7.976 1.486 10a.93.93 0 01.14.58c-.021.35-.527.871-1.418 1.533-3.231 1.682-7.049 2.426-10.198 1.131-5.207-2.143-7.168-8.4-3.506-15.915C90.28 9.904 104.022 6.37 119.59 6.37h10.733c-3.862 8.237-14.729 31.355-20.337 42.612-7.807 15.678-14.64 26.838-27.223 26.838-3.587 0-6.462-1.026-8.75-2.619-.876-1.123-1.329-1.912-1.247-2.276.074-.343.32-.558.765-.692l.089-.023c.037-.007.067-.022.111-.03h-.007c.156-.052.312-.096.468-.156 3.327-1.324 4.716-5.677 3.112-9.71-1.604-4.032-5.6-6.227-8.928-4.903-2.756 1.101-4.182 4.286-3.67 7.642.461 5.99 7.488 16.681 19.632 17.864h.015zm83.584-59.614c-1.842 7.746-11.766 16.094-39.642 16.838 5.972-11.934 12.88-25.737 15.873-31.726 19.208.498 25.745 6.607 23.769 14.888zm73.028 70.253c2.257 0 4.084 2.768 4.084 6.18 0 3.374-1.179 4.432-2.817 7.148-.932 1.546-1.267 3.048-1.267 3.048s-.335-1.502-1.267-3.048c-1.638-2.716-2.817-3.774-2.817-7.149 0-3.374 1.827-6.179 4.084-6.179zm-17.046 9.811c1.169-1.95 4.554-2.176 7.57-.495s3.302 3.201 4.848 5.952a11.391 11.391 0 002.028 2.597s-1.5-.444-3.347-.4c-3.242.08-4.788.582-7.766-1.077-3.016-1.681-4.509-4.62-3.341-6.577h.008zm-.008 19.838c-1.168-1.952.325-4.902 3.341-6.584 2.978-1.66 4.516-1.158 7.766-1.078 1.847.044 3.347-.4 3.347-.4s-1.153 1.034-2.028 2.6c-1.546 2.753-1.87 4.296-4.848 5.957-2.978 1.66-6.401 1.456-7.57-.495h-.008zm17.054 10.547c-2.257 0-4.084-2.768-4.084-6.179 0-3.374 1.179-4.433 2.817-7.148.932-1.547 1.267-3.049 1.267-3.049s.335 1.502 1.267 3.049c1.638 2.715 2.817 3.774 2.817 7.148 0 3.411-1.827 6.179-4.084 6.179zm17.792-10.555c-1.169 1.95-4.555 2.176-7.572.495-2.979-1.659-3.303-3.201-4.85-5.952-.882-1.564-2.028-2.597-2.028-2.597s1.5.444 3.348.4c3.243-.08 4.79-.582 7.769 1.077 2.979 1.659 4.51 4.62 3.341 6.577h-.008zm.003-19.838c1.169 1.952-.324 4.901-3.34 6.584-2.978 1.66-4.516 1.158-7.766 1.078-1.847-.044-3.347.4-3.347.4s1.153-1.034 2.028-2.6c1.545-2.753 1.87-4.297 4.848-5.957 2.978-1.66 6.401-1.457 7.57.495h.007z" fill="#FF2799"/></svg>